<?xml version="1.0" encoding="utf-8"?>
<!-- Generator: Adobe Illustrator 23.0.2, SVG Export Plug-In . SVG Version: 6.00 Build 0)  -->
<svg version="1.1" id="Capa_1" xmlns="http://www.w3.org/2000/svg" xmlns:xlink="http://www.w3.org/1999/xlink" x="0px" y="0px"
	 viewBox="0 0 60 60" style="enable-background:new 0 0 60 60;" xml:space="preserve">
<style type="text/css">
	.st0{fill:#030202;}
</style>
<g>
	<path class="st0" d="M8.7,39.5c1.2-1.6,3.4-1.8,4.9-0.4c0.5,0.5,0.9,1.1,0.7,1.8c-0.2,0.8-0.9,1-1.6,1.2c-1,0.3-1.9-0.2-2.9-0.5
		C9.3,41.1,9,40.3,8.7,39.5z"/>
	<path class="st0" d="M6.9,26.2c1.9-0.2,3.3,0.5,3.3,1.7c0,1.3-1.5,2.1-3.6,2c-0.2-0.3-0.1-0.6-0.1-0.8c0.2-0.3,0.5-0.2,0.8-0.2
		c0.1,0,0.2,0,0.2,0c-0.3-0.1-0.6,0.1-0.9-0.2c-0.1-0.2-0.1-0.4,0.1-0.6C6.6,27.5,6.3,26.7,6.9,26.2z"/>
	<path class="st0" d="M47.8,15.2c-0.6,0.6-1.3,0.8-2.1,0.9c-0.8,0.1-1.6-0.1-2.1-0.9c-0.5-0.8-0.1-1.5,0.5-2.2
		c0.3-0.3,0.6-0.5,0.9-0.8C45.7,13.5,47,14.1,47.8,15.2z"/>
	<path class="st0" d="M52,21.7c-1.7,0-2.8-0.6-3.4-2.1c-0.4-1.1-0.5-2.1,0.6-2.9c0.3,0.1,0.2,0.3,0.2,0.5c0.3,1.4,1.1,2.4,2.1,3.4
		C51.6,21,51.8,21.3,52,21.7z"/>
	<path class="st0" d="M52.6,34.5c0-0.6-0.1-1-0.5-1.5c-0.9-1.2-0.7-1.9,0.7-2.7c0.3,0.7,0.2,1.5,0,2.2C52.7,33.3,53.1,34,52.6,34.5z
		"/>
	<path class="st0" d="M51.1,20.5c-1.5-0.4-2.4-1.8-2.1-3.4C49.9,18.1,50.9,19.1,51.1,20.5z"/>
	<path class="st0" d="M45.6,31.3c-0.1,1-0.4,1.8-1.6,1.7c-1.4,0-3-1.7-3-3.3c0-1,0.4-1.8,1.5-1.9C43.9,27.8,45.5,29.7,45.6,31.3z"/>
	<path class="st0" d="M15.2,35.8c-1.8,0-3.3-1-3.3-2.2c0-1,1.2-1.8,2.6-1.8c1.6,0,3.2,1.1,3.1,2.3C17.3,35.5,16.2,35.7,15.2,35.8z"
		/>
	<path class="st0" d="M29.5,32.7c-2,0-3.7-1.4-3.6-2.7c0.1-1.2,1-1.5,2-1.5c1.6,0,3.4,1.4,3.3,2.7C31.2,32.4,30.3,32.7,29.5,32.7z"
		/>
	<path class="st0" d="M38.7,18.4c1.6,0,3.3,1.6,3.3,3.1c0,1.2-0.7,1.6-1.7,1.6c-1.6,0-3.4-1.7-3.3-3.1
		C37.1,18.9,37.7,18.4,38.7,18.4z"/>
	<path class="st0" d="M24.7,24.2c-1-0.1-2-0.3-2.3-1.4c-0.3-1.1,0.5-1.8,1.4-2.2c1.2-0.6,2.4-0.7,3.6,0.1c0.6,0.4,0.7,1.1,0.4,1.8
		C27.2,23.8,26,24.2,24.7,24.2z"/>
	<path class="st0" d="M36.9,29c-1.4,0-2.6-0.8-2.7-1.7c-0.1-1,1-2,2.5-2.2c1.8-0.2,3.2,0.6,3.2,1.7C40,28,38.6,29,36.9,29z"/>
	<path class="st0" d="M21.2,26.6c0.9,0,1.8,0.3,1.8,1.6c0,1.4-1.8,2.8-3.5,2.7c-1,0-1.9-0.4-1.9-1.7C17.6,27.9,19.4,26.6,21.2,26.6z
		"/>
	<path class="st0" d="M46.8,23.9c1.7,0,3.1,1.1,3.1,2.3c-0.1,1-1.2,1.7-2.6,1.7c-1.6-0.1-3-1.1-3-2.2C44.2,24.6,45.4,23.9,46.8,23.9
		z"/>
	<path class="st0" d="M20.5,38.6c1.7,0,3.5,1.2,3.4,2.5c0,1.3-1.1,1.6-2.1,1.6c-1.7,0-3.4-1.3-3.3-2.6
		C18.5,39.2,19.2,38.7,20.5,38.6z"/>
	<path class="st0" d="M31.6,21.7c-1.7,0-3.1-1.1-3-2.3c0.1-1.2,1.6-1.9,3.3-1.6c1.2,0.2,2.3,0.7,2.3,2.1
		C34.2,20.9,33,21.7,31.6,21.7z"/>
	<path class="st0" d="M23.2,38.4c-1.6,0-2.9-1-2.9-2.1c0-1.1,1.3-1.9,2.9-1.8c1.6,0,2.9,1,2.8,2.1C26,37.6,24.7,38.4,23.2,38.4z"/>
	<path class="st0" d="M32.3,38c-0.9-0.1-1.9-0.3-1.9-1.6c-0.1-1.3,1.8-2.8,3.4-2.7c1,0,1.9,0.4,1.9,1.6C35.8,36.6,34.1,37.9,32.3,38
		z"/>
	<path class="st0" d="M10.7,40.9c0.8,0.2,1.3,0.3,2.1,0.5C11.9,41.7,11.3,41.8,10.7,40.9z"/>
	<path class="st0" d="M45.7,14.1c0.2-0.3,0.4-0.2,0.7-0.3c0,0,0.1,0.2,0,0.2C46.1,14.3,45.9,14.3,45.7,14.1z"/>
	<path class="st0" d="M25.5,22.9c-0.4,0.5-0.9,0.4-1.5,0.2C24.5,23,25,22.9,25.5,22.9z"/>
	<path class="st0" d="M37.5,27.8c-0.6,0.4-1.1,0.3-1.6-0.1C36.5,27.5,36.9,27.5,37.5,27.8z"/>
	<path class="st0" d="M19,29.8c0.4-0.2,0.7-0.3,1.2-0.2C19.9,30.1,19.5,30,19,29.8z"/>
	<path class="st0" d="M48.5,26.7c-1.1,0.3-1.7,0.2-2.5-0.3C46.9,26.5,47.5,26.6,48.5,26.7z"/>
	<path class="st0" d="M22.5,41.7c-0.5,0.4-0.8,0.3-1.1-0.1C21.8,41.3,22.2,41.4,22.5,41.7z"/>
	<path class="st0" d="M32.7,20.4c-0.4,0.3-0.8,0.3-1.3,0.1C31.9,20.1,32.3,20.3,32.7,20.4z"/>
	<path class="st0" d="M22.5,37.1c0.6-0.3,1-0.2,1.6,0C23.5,37.6,23.1,37.6,22.5,37.1z"/>
	<path class="st0" d="M32.5,36.7c0.3-0.1,0.6-0.1,1-0.2c0,0.6-0.5,0.4-0.7,0.5c-0.1,0-0.2,0.1-0.3-0.1
		C32.4,36.8,32.4,36.7,32.5,36.7z"/>
	<path class="st0" d="M32.5,36.7c0.1,0.1,0.2,0.2,0.2,0.3c-0.3,0.2-0.7,0.4-0.9,0.1C31.7,36.8,32.2,36.7,32.5,36.7z"/>
	<g>
		<path class="st0" d="M29.7,54.1c-13.4,0-24.3-10.9-24.3-24.3S16.3,5.5,29.7,5.5C43.1,5.5,54,16.4,54,29.8S43.1,54.1,29.7,54.1z
			 M29.7,6.8c-12.7,0-23,10.3-23,23s10.3,23,23,23c12.7,0,23-10.3,23-23S42.4,6.8,29.7,6.8z"/>
	</g>
</g>
</svg>
