<?xml version="1.0" encoding="utf-8"?>
<!-- Generator: Adobe Illustrator 23.0.2, SVG Export Plug-In . SVG Version: 6.00 Build 0)  -->
<svg version="1.1" id="Capa_1" xmlns="http://www.w3.org/2000/svg" xmlns:xlink="http://www.w3.org/1999/xlink" x="0px" y="0px"
	 viewBox="0 0 60 60" style="enable-background:new 0 0 60 60;" xml:space="preserve">
<g>
	<circle cx="15" cy="16" r="1"/>
	<circle cx="10" cy="14" r="1"/>
	<circle cx="17" cy="11" r="1"/>
	<circle cx="20" cy="17" r="1"/>
	<circle cx="21" cy="7" r="1"/>
	<circle cx="40" cy="18" r="1"/>
	<circle cx="43" cy="10" r="1"/>
	<circle cx="44" cy="15" r="1"/>
	<circle cx="50" cy="15" r="1"/>
	<circle cx="53" cy="19" r="1"/>
	<path d="M0,29L0,29c0,0.3,0,0.7,0,1c0,16.5,13.5,30,30,30s30-13.5,30-30c0-0.3,0-0.7,0-1h0l0-0.5c0-0.2,0-0.3,0-0.5l0-0.1
		c0,0,0,0,0-0.1c0-0.5-0.1-0.9-0.1-1.4c0,0,0-0.1,0-0.1c-0.1-0.5-0.1-0.9-0.2-1.4c0,0,0,0,0,0c-0.1-0.8-0.3-1.5-0.5-2.3l0,0L58.9,22
		c0,0,0-0.1,0-0.1c-0.2-0.8-0.5-1.5-0.7-2.2c0,0,0,0,0-0.1c-0.3-0.7-0.5-1.3-0.8-2c-0.1-0.1-0.1-0.2-0.2-0.4
		c-0.3-0.6-0.6-1.2-0.9-1.8c-0.1-0.2-0.2-0.3-0.3-0.5c-0.3-0.6-0.7-1.2-1.1-1.7c-0.1-0.1-0.2-0.2-0.2-0.3c-0.4-0.5-0.7-1-1.1-1.5
		c-0.1-0.1-0.2-0.2-0.3-0.3c-0.4-0.5-0.9-1.1-1.4-1.6c-0.1-0.1-0.2-0.2-0.3-0.3c-0.5-0.5-1-1-1.6-1.5c0,0,0,0,0,0
		c-3.6-3.2-8-5.6-12.8-6.8c0,0-0.1,0-0.1,0c-0.4-0.1-0.9-0.2-1.3-0.3c-0.1,0-0.2,0-0.2,0c-0.2,0-0.3-0.1-0.5-0.1c0,0-0.1,0-0.1,0
		c-0.2,0-0.3-0.1-0.5-0.1c-0.1,0-0.3,0-0.4-0.1c-0.3,0-0.7-0.1-1-0.1c-0.1,0-0.2,0-0.3,0c-0.1,0-0.2,0-0.3,0c0,0,0,0-0.1,0
		c-0.2,0-0.5,0-0.7-0.1c-0.5,0-1,0-1.5,0s-1,0-1.5,0c-0.2,0-0.5,0-0.7,0.1c0,0-0.1,0-0.1,0c-0.1,0-0.3,0-0.4,0c-0.1,0-0.1,0-0.2,0
		c-0.3,0-0.7,0.1-1,0.1c-0.1,0-0.3,0-0.4,0.1c-0.2,0-0.3,0-0.5,0.1c-0.2,0-0.5,0.1-0.7,0.1c0,0,0,0,0,0c-0.1,0-0.2,0-0.2,0
		c-0.4,0.1-0.9,0.2-1.3,0.3c0,0,0,0-0.1,0c-0.4,0.1-0.8,0.2-1.2,0.3c-0.3,0.1-0.6,0.2-0.9,0.3c-7.7,2.5-14,7.9-17.6,15.2
		C3,17,2.8,17.3,2.7,17.6c-0.1,0.3-0.3,0.6-0.4,0.9c-0.3,0.6-0.5,1.3-0.7,1.9c0,0.1-0.1,0.3-0.1,0.4C1.2,21.5,1,22.2,0.8,23
		c0,0,0,0,0,0.1l-0.1,0.5l0,0c-0.1,0.5-0.2,0.9-0.3,1.4c0,0,0,0,0,0c-0.1,0.5-0.1,0.9-0.2,1.4c0,0,0,0.1,0,0.1
		c-0.1,0.5-0.1,0.9-0.1,1.4c0,0,0,0,0,0.1l0,0.1c0,0.2,0,0.3,0,0.5L0,29z M34,24.2l0.6-1.4c0.9-0.1,1.9,0.1,2.6,0.8l0.5,0.5
		c2,2,5.2,2,7.2,0l0.5-0.5c1.2-1.2,3.1-1.2,4.3,0l0.5,0.5c2,2,5.2,2,7.2,0l0,0c0.2,1,0.4,1.9,0.5,2.9H36.5c-1.4,0-2.5-1.1-2.5-2.5
		V24.2z M32.1,2.1c0.1,0,0.2,0,0.4,0c0.7,0.1,1.3,0.1,1.9,0.2c0.1,0,0.2,0,0.3,0.1c0.7,0.1,1.3,0.2,2,0.4c0.1,0,0.1,0,0.2,0
		c0.7,0.2,1.3,0.4,2,0.6c0,0,0,0,0.1,0c0.6,0.2,1.3,0.5,1.9,0.7c0.1,0,0.2,0.1,0.3,0.1c0.6,0.2,1.1,0.5,1.7,0.8
		c0.1,0.1,0.3,0.1,0.4,0.2c0.5,0.3,1,0.6,1.5,0.9c0.2,0.1,0.3,0.2,0.5,0.3c0.4,0.2,0.7,0.5,1.1,0.8c0.2,0.2,0.5,0.3,0.7,0.5
		c0.3,0.3,0.7,0.5,1,0.8c0.2,0.2,0.5,0.4,0.7,0.6c0.3,0.3,0.7,0.6,1,0.9c0.2,0.2,0.5,0.5,0.7,0.7c0.2,0.2,0.3,0.4,0.5,0.6
		c0.4,0.4,0.7,0.8,1,1.2c0.1,0.2,0.3,0.4,0.4,0.6c0.3,0.4,0.6,0.8,0.9,1.3c0.2,0.2,0.3,0.5,0.5,0.7c0.2,0.3,0.3,0.6,0.5,0.8
		c0.2,0.4,0.5,0.8,0.7,1.3c0.1,0.2,0.2,0.5,0.4,0.8c0.2,0.5,0.5,1,0.7,1.5c0.1,0.2,0.1,0.4,0.2,0.6c0.2,0.5,0.4,1,0.5,1.6
		c0,0.1,0.1,0.2,0.1,0.2c-0.1,0.1-0.2,0.2-0.4,0.3l-0.5,0.5c-1.2,1.2-3.2,1.2-4.3,0l-0.5-0.5c-1-1-2.2-1.5-3.6-1.5
		c-1.4,0-2.6,0.5-3.6,1.5l-0.5,0.5c-1.2,1.2-3.1,1.2-4.3,0l-0.5-0.5c-0.8-0.8-1.9-1.3-3.1-1.4l1.9-4.8c1-2.5,0.7-5.3-0.8-7.5
		c-1.5-2.2-4-3.5-6.6-3.5s-5.1,1.3-6.6,3.5c-1.5,2.2-1.8,5-0.8,7.5l0,0c0,0,0,0,0,0l0,0l2.1,5.2c-1.9-0.9-4.2-0.6-5.8,1
		c-1.2,1.2-3.1,1.2-4.3,0c-1-1-2.2-1.5-3.6-1.5s-2.6,0.5-3.6,1.5l-0.5,0.5c-1.1,1.1-2.8,1.2-4,0.3c0-0.1,0.1-0.2,0.1-0.3
		c0.1-0.5,0.3-1.1,0.5-1.6c0.1-0.3,0.2-0.7,0.4-1c0.1-0.3,0.2-0.6,0.4-0.9c3.3-7.7,9.9-13.7,18-16.1c0,0,0.1,0,0.1,0c0,0,0,0,0,0
		C22.7,3,23,2.9,23.4,2.8c0,0,0.1,0,0.1,0c0.4-0.1,0.9-0.2,1.4-0.3c0.1,0,0.1,0,0.2,0c0.2,0,0.4-0.1,0.6-0.1
		c0.6-0.1,1.2-0.2,1.8-0.2c0.2,0,0.3,0,0.5,0C28.6,2,29.3,2,30,2C30.7,2,31.4,2,32.1,2.1z M26,24.5L26,24.5c0,1.4-1.1,2.5-2.5,2.5
		H2.2c0.1-0.7,0.2-1.3,0.3-2c1.9,1,4.3,0.7,5.9-0.9l0.5-0.5c1.2-1.2,3.2-1.2,4.3,0c2,2,5.2,2,7.2,0c1.2-1.2,3.1-1.2,4.3,0l1.1,1.1
		L26,24.5z M58,30c0,15.4-12.6,28-28,28S2,45.4,2,30c0-0.3,0-0.7,0-1h21.5c2.5,0,4.5-2,4.5-4.5v-0.7l-3.6-8.6
		c-0.7-1.8-0.5-3.9,0.6-5.6s3-2.6,5-2.6s3.8,1,5,2.6c1.1,1.6,1.3,3.7,0.6,5.6L32,23.8v0.7c0,2.5,2,4.5,4.5,4.5H58
		C58,29.3,58,29.7,58,30z"/>
</g>
</svg>
