<?xml version="1.0" encoding="utf-8"?>
<!-- Generator: Adobe Illustrator 23.0.2, SVG Export Plug-In . SVG Version: 6.00 Build 0)  -->
<svg version="1.1" id="Layer_1" xmlns="http://www.w3.org/2000/svg" xmlns:xlink="http://www.w3.org/1999/xlink" x="0px" y="0px"
	 viewBox="0 0 595.3 841.9" style="enable-background:new 0 0 595.3 841.9;" xml:space="preserve">
<g>
	<path d="M300.9,571.4c-83,0-150.5-67.5-150.5-150.5s67.5-150.5,150.5-150.5s150.5,67.5,150.5,150.5S383.9,571.4,300.9,571.4z
		 M300.9,282.9c-76.1,0-138.1,61.9-138.1,138.1c0,76.1,61.9,138,138.1,138c76.1,0,138-61.9,138-138
		C439,344.8,377.1,282.9,300.9,282.9z"/>
</g>
<g>
	<g>
		<g>
			<path d="M266.1,492.5c-3.3-3.3-3.2-8.6,0-11.8c3.3-3.3,8.6-3.2,11.8,0c3.3,3.3,3.2,8.6,0,11.8
				C274.7,495.7,269.4,495.8,266.1,492.5z M275.1,483.6c-1.7-1.7-4.4-1.6-6,0c-1.6,1.6-1.6,4.4,0,6c1.6,1.6,4.3,1.7,6,0
				C276.7,487.9,276.7,485.2,275.1,483.6z"/>
		</g>
	</g>
	<g>
		<g>
			<path d="M254.1,523.1c-3.3-3.3-3.2-8.6,0-11.8c3.3-3.3,8.6-3.2,11.8,0c3.3,3.3,3.2,8.6,0,11.8
				C262.6,526.4,257.4,526.4,254.1,523.1z M263,514.3c-1.7-1.7-4.4-1.6-6,0c-1.7,1.7-1.6,4.4,0,6c1.6,1.6,4.3,1.7,6,0
				C264.6,518.5,264.6,515.9,263,514.3z"/>
		</g>
	</g>
	<g>
		<g>
			<path d="M232.7,501.7c-3.3-3.3-3.2-8.6,0-11.8c3.3-3.3,8.6-3.2,11.8,0c3.3,3.3,3.2,8.6,0,11.8C241.3,505.1,236,505,232.7,501.7z
				 M241.6,492.9c-1.7-1.7-4.4-1.6-6,0c-1.7,1.7-1.6,4.4,0,6c1.6,1.6,4.3,1.7,6,0C243.2,497.2,243.2,494.5,241.6,492.9z"/>
		</g>
	</g>
	<g>
		<g>
			<path d="M245.9,478.4c-3.3-3.3-3.2-8.6,0-11.8c3.3-3.3,8.6-3.2,11.8,0c3.3,3.3,3.2,8.6,0,11.8
				C254.4,481.7,249.1,481.7,245.9,478.4z M254.8,469.5c-1.7-1.7-4.4-1.6-6,0c-1.6,1.6-1.6,4.4,0,6c1.7,1.7,4.3,1.7,6,0
				C256.5,473.8,256.4,471.1,254.8,469.5z"/>
		</g>
	</g>
	<g>
		<g>
			<path d="M217.6,479.7c-3.3-3.3-3.2-8.6,0-11.8c3.3-3.3,8.6-3.2,11.8,0c3.3,3.3,3.2,8.6,0,11.8C226.2,483,220.9,483,217.6,479.7z
				 M226.6,470.8c-1.7-1.7-4.4-1.6-6,0c-1.6,1.6-1.6,4.4,0,6c1.7,1.7,4.3,1.7,6,0C228.2,475.1,228.2,472.5,226.6,470.8z"/>
		</g>
	</g>
	<g>
		<g>
			<path d="M268.4,463.9c-3.3-3.3-3.2-8.6,0-11.8c3.3-3.3,8.6-3.2,11.8,0c3.3,3.3,3.2,8.6,0,11.8C277,467.2,271.7,467.2,268.4,463.9
				z M277.3,455c-1.7-1.7-4.4-1.6-6,0c-1.7,1.7-1.6,4.4,0,6c1.7,1.7,4.3,1.7,6,0C278.9,459.3,279,456.6,277.3,455z"/>
		</g>
	</g>
	<g>
		<g>
			<path d="M353.4,487.2c-4.6,0-8.3-3.8-8.3-8.3c0-4.6,3.8-8.3,8.3-8.3c4.6,0,8.3,3.8,8.3,8.3C361.7,483.4,358,487.2,353.4,487.2z
				 M353.4,474.5c-2.4,0-4.2,1.9-4.2,4.2s1.9,4.2,4.2,4.2c2.3,0,4.2-1.9,4.2-4.2C357.6,476.4,355.8,474.5,353.4,474.5z"/>
		</g>
	</g>
	<g>
		<g>
			<path d="M366.5,517.3c-4.6,0-8.3-3.8-8.3-8.3c0-4.6,3.8-8.3,8.3-8.3c4.6,0,8.3,3.8,8.3,8.3C374.9,513.6,371.2,517.3,366.5,517.3z
				 M366.5,504.8c-2.4,0-4.2,1.9-4.2,4.2c0,2.4,1.9,4.2,4.2,4.2c2.3,0,4.2-1.9,4.2-4.2C370.8,506.6,368.8,504.8,366.5,504.8z"/>
		</g>
	</g>
	<g>
		<g>
			<path d="M336.3,517.3c-4.6,0-8.3-3.8-8.3-8.3c0-4.6,3.8-8.3,8.3-8.3c4.6,0,8.3,3.8,8.3,8.3C344.7,513.6,340.9,517.3,336.3,517.3z
				 M336.3,504.8c-2.4,0-4.2,1.9-4.2,4.2c0,2.4,1.9,4.2,4.2,4.2s4.2-1.9,4.2-4.2C340.5,506.6,338.6,504.8,336.3,504.8z"/>
		</g>
	</g>
	<g>
		<g>
			<path d="M329.1,491.6c-4.6,0-8.3-3.8-8.3-8.3c0-4.6,3.8-8.3,8.3-8.3c4.6,0,8.3,3.8,8.3,8.3C337.5,487.8,333.7,491.6,329.1,491.6z
				 M329.1,478.9c-2.4,0-4.2,1.9-4.2,4.2s1.9,4.2,4.2,4.2c2.4,0,4.2-1.9,4.2-4.2C333.3,480.8,331.4,478.9,329.1,478.9z"/>
		</g>
	</g>
	<g>
		<g>
			<path d="M310.1,512.5c-4.6,0-8.3-3.8-8.3-8.3c0-4.6,3.8-8.3,8.3-8.3c4.6,0,8.3,3.8,8.3,8.3C318.4,508.7,314.7,512.5,310.1,512.5z
				 M310.1,499.8c-2.4,0-4.2,1.9-4.2,4.2c0,2.3,1.9,4.2,4.2,4.2c2.4,0,4.2-1.9,4.2-4.2C314.3,501.7,312.4,499.8,310.1,499.8z"/>
		</g>
	</g>
	<g>
		<g>
			<path d="M334.8,465.3c-4.6,0-8.3-3.8-8.3-8.3c0-4.6,3.8-8.3,8.3-8.3c4.6,0,8.3,3.8,8.3,8.3C343.2,461.6,339.4,465.3,334.8,465.3z
				 M334.8,452.7c-2.4,0-4.2,1.9-4.2,4.2c0,2.4,1.9,4.2,4.2,4.2c2.4,0,4.2-1.9,4.2-4.2C339,454.6,337.1,452.7,334.8,452.7z"/>
		</g>
	</g>
</g>
<g>
	<g>
		<polyline points="331.4,368.4 345.1,343.8 358.4,368.4 		"/>
		<rect x="342" y="367.4" width="6" height="56"/>
	</g>
	<g>
		<polyline points="288.4,368.4 302.1,343.8 315.4,368.4 		"/>
		<rect x="299" y="367.4" width="6" height="56"/>
	</g>
	<g>
		<polyline points="243.4,368.4 257.1,343.8 270.5,368.4 		"/>
		<rect x="254" y="367.4" width="6" height="56"/>
	</g>
</g>
<rect x="162.8" y="421" width="278.2" height="9.1"/>
</svg>
