<?xml version="1.0" encoding="utf-8"?>
<!-- Generator: Adobe Illustrator 23.0.2, SVG Export Plug-In . SVG Version: 6.00 Build 0)  -->
<svg version="1.1" id="Layer_1" xmlns="http://www.w3.org/2000/svg" xmlns:xlink="http://www.w3.org/1999/xlink" x="0px" y="0px"
	 viewBox="0 0 595.3 841.9" style="enable-background:new 0 0 595.3 841.9;" xml:space="preserve">
<g>
	<path d="M350.5,370.7c7.2,0,13,5.5,13.2,12.6c0.2,7.1-5.4,12.9-12.7,13.1c-7.7,0.2-13.5-5.5-13.4-13
		C337.6,376,343,370.7,350.5,370.7z"/>
	<path d="M349.1,515.4c-7.2-0.1-12.8-5.8-12.7-12.9c0.1-7.3,5.5-12.6,12.9-12.7c7.6,0,13.5,5.9,13.2,13.2
		C362.1,510.2,356.4,515.5,349.1,515.4z"/>
	<path d="M362.4,324.6c0.1,6.9-5.7,13-12.7,13.3c-7.1,0.3-13.5-6-13.5-13.3c0.1-7.1,5.9-12.8,13-12.8
		C356.4,311.9,362.3,317.6,362.4,324.6z"/>
	<path d="M311,473.7c-0.2,7.3-5.8,12.8-13,12.7c-7.1-0.1-12.7-5.9-12.7-13.1c0-7.6,6-13.3,13.5-13
		C306.1,460.7,311.1,466.2,311,473.7z"/>
	<path d="M310.6,294.5c-0.1,7.1-5.8,12.9-12.8,13c-7.6,0-13-5.8-12.8-13.6c0.2-7.3,5.9-12.7,13-12.5
		C305.2,281.6,310.7,287.3,310.6,294.5z"/>
	<path d="M194.5,400.3c7.5,0.1,12.6,5.3,12.6,12.7c-0.1,7.3-5.5,12.9-12.7,12.9c-7.5,0.1-13-5.6-12.9-13.4
		C181.7,405,186.8,400.1,194.5,400.3z"/>
	<path d="M310.6,413c-0.1,7.2-5.6,12.8-12.7,12.9c-7.5,0.1-13.1-5.7-12.9-13.4c0.2-7.7,5.2-12.4,13-12.3
		C305.5,400.4,310.7,405.6,310.6,413z"/>
	<path d="M258.8,322.9c0.1,6.8-5.8,13.1-12.6,13.4c-7.2,0.3-13.2-5.8-13.1-13.3c0.1-7.3,5.6-12.9,12.7-12.9
		C252.6,310,258.7,316.1,258.8,322.9z"/>
	<path d="M258.8,502.8c-0.1,7.1-5.8,12.7-13,12.7c-7.7,0-13-5.5-12.8-13.4c0.2-7.5,5.5-12.3,13.1-12.2
		C253.5,490,258.9,495.5,258.8,502.8z"/>
	<path d="M245.7,370.7c7.4,0,13,5.4,13.1,12.7c0.1,7.2-5.6,12.9-12.9,12.9c-7.4,0.1-12.8-5.3-12.8-12.7
		C233.1,375.9,238.2,370.7,245.7,370.7z"/>
	<path d="M194.2,484.2c-7.6-0.1-12.7-5.4-12.6-12.9c0.1-7.6,5.3-12.7,12.9-12.6c7.5,0.1,12.7,5.4,12.6,12.9
		C207,479.1,201.7,484.3,194.2,484.2z"/>
	<path d="M401.4,400.3c7.6-0.1,13,5.1,13,12.5c0,7.4-5.4,13.1-12.6,13.2c-7.2,0.1-12.8-5.4-13-12.8
		C388.7,405.6,393.9,400.3,401.4,400.3z"/>
	<path d="M414.4,472.6c0,7.3-5.5,12.9-12.7,13c-7.3,0.1-12.8-5.4-12.9-12.8c-0.1-7.5,5.2-12.9,12.7-12.9
		C409,459.8,414.4,465.2,414.4,472.6z"/>
	<path d="M329.2,388.5c2.9,1.5,3.1,5,5,7.2c1.7,2,0.2,3.2-1.5,4.2c-2.7,1.5-5.5,3-8.1,4.7c-3.5,2.2-5.9,4.1-9-1.4
		c-3-5.3-0.6-6.7,3.2-8.7C322.2,392.8,325.4,390.7,329.2,388.5z"/>
	<path d="M282.6,486.6c0.1,1.9-12.4,10.9-14.8,10.5c-4.2-0.7-6.2-6.3-5.5-7.8c2.4-5.7,8.9-7.7,14.1-9.5
		C280.6,478.3,279.9,485,282.6,486.6z"/>
	<path d="M371.2,498c-3.5-1.1-3-4.8-4.9-6.8c-1.5-1.7-1-3.2,1.1-4.4c3.9-2.2,7.7-4.4,11.4-6.7c1.5-0.9,3.1-1.4,3.8,0.6
		c1,2.8,5.6,5.7,3.4,7.7C381.8,492.4,376.2,494.9,371.2,498z"/>
	<path d="M231,397c-4.3,5-9.7,7.9-15.1,9.5c-3.8,1.1-6.3-5.8-5.8-7.2c2.2-5.8,8.7-7.8,13.9-9.5C228.3,388.3,227.2,395.3,231,397z"/>
	<path d="M229.5,489.6c-0.4,5.8-5.1,8.2-10.3,5.3c-2-1.2-4.3-2.1-6-3.6c-1.9-1.6-7.3-1.6-3.6-6.4c2.4-3.1,3.9-8.1,9.3-3.5
		c2.3,2,5.4,3.1,8.1,4.7C228.3,486.9,229.9,487.6,229.5,489.6z"/>
	<path d="M355.7,353.5c-0.2,5.3,1.6,10.2-6.4,10c-8.1-0.2-5-5.5-5.3-9.1c-0.3-4.4-1.7-9.2,6.3-9
		C358.5,345.4,354.4,351.1,355.7,353.5z"/>
	<path d="M335.9,308.8c-3.1,2.8-4.1,8.8-7.1,8.2c-5.1-1.1-10.2-4.3-14.1-7.8c-2.8-2.5,1.8-5.3,2.5-8.2c0.7-2.6,2.7-1.7,4.3-0.7
		C326.1,303.1,330.8,305.8,335.9,308.8z"/>
	<path d="M265.8,389.6c3-0.2,16.7,8.2,16.2,9c-1.5,3.1-2.4,6.8-5.7,8.7c-1.2,0.7-15.7-8.7-15.2-9.5
		C262.6,394.7,264.5,391.8,265.8,389.6z"/>
	<path d="M281.5,306.8c0.2,2-11.1,10.6-13.9,10.3c-4.3-0.5-6.4-6.4-5.9-7.6c2.4-5.8,8.8-7.8,14-9.7
		C280.2,298.2,278.5,305.4,281.5,306.8z"/>
	<path d="M334.3,488.1c-2,3.5-3.2,6.7-5.3,8.8c-1.7,1.7-3.6-1-5.3-1.8c-2.1-1-4.1-2.3-6.1-3.4c-3.2-1.7-5.4-2.9-2.5-7.5
		c2.7-4.1,4.3-5.7,8.7-2.3C326.9,484.3,330.6,486,334.3,488.1z"/>
	<path d="M251.1,354c-2.1,2.4,4.1,8.8-4.5,9.3c-5.3,0.3-7.7-1.1-6.9-6.7c0.3-1.8,0.1-3.6,0-5.4c-0.3-4.4-0.5-7.5,6.1-7.5
		c6.9,0,4.9,4,5.2,7.4C251.2,351.8,251.1,352.6,251.1,354z"/>
	<path d="M407.7,443.4c-2.1,2.3,4.1,8.8-4.6,9c-5.3,0.1-7.7-1.2-6.8-6.8c0.3-2.3,0.3-4.7,0-7c-0.7-5.8,3.2-4.9,6.8-5.4
		c5.2-0.7,4.7,2.4,4.6,5.6C407.7,440.2,407.7,441.5,407.7,443.4z"/>
	<path d="M303.3,444c-1.6,2.4,3.4,8.3-4.3,8.8c-5.1,0.4-8.1-0.5-7.2-6.5c0.3-1.8,0-3.7,0.1-5.5c0.1-3.7-1.4-7.5,5.4-7.6
		c6.9-0.1,6.1,3.6,6.1,7.8C303.3,441.9,303.3,442.7,303.3,444z"/>
	<path d="M365.4,398c1.7-2.7,2.9-5.4,4.8-7.5c2-2.2,3.7,0.4,5.5,1.1c1.9,0.8,3.6,2.1,5.4,3c4,1.9,6,3.5,3,8.7
		c-2.9,5-5.2,3.6-8.4,1.4C372.2,402.5,368.1,401.3,365.4,398z"/>
	<path d="M187.7,441.8c2.5-2.3-3.7-8.2,4.7-8.7c8.7-0.5,6.8,4.8,6.7,9.4c-0.1,3.9,2.1,8.9-5.8,8.8
		C184.9,451.2,189.4,445.3,187.7,441.8z"/>
</g>
</svg>
