<svg height="511pt" viewBox="0 -104 511.99859 511" width="511pt" xmlns="http://www.w3.org/2000/svg"><path d="m17.945312 54.074219c78.207032-15.644531 158.300782-23.574219 238.054688-23.574219s159.847656 7.929688 238.054688 23.574219c.992187.195312 1.980468.292969 2.957031.292969 7.003906 0 13.265625-4.929688 14.691406-12.0625 1.625-8.121094-3.640625-16.023438-11.765625-17.648438-80.140625-16.027344-162.210938-24.15625-243.9375-24.15625s-163.800781 8.128906-243.941406 24.15625c-8.121094 1.625-13.390625 9.527344-11.765625 17.648438 1.625 8.125 9.527343 13.386718 17.652343 11.769531zm0 0"/><path d="m494.054688 249.589844c-78.207032 15.640625-158.300782 23.574218-238.054688 23.574218s-159.847656-7.933593-238.054688-23.574218c-8.125-1.625-16.027343 3.644531-17.652343 11.765625-1.625 8.125 3.644531 16.027343 11.765625 17.652343 80.140625 16.027344 162.214844 24.15625 243.941406 24.15625s163.796875-8.128906 243.9375-24.15625c8.125-1.625 13.390625-9.527343 11.765625-17.652343-1.621094-8.125-9.527344-13.390625-17.648437-11.765625zm0 0"/><path d="m135.5 204.242188c20.53125 0 36.558594-10.710938 43.34375-18.347657 5.503906-6.191406 4.941406-15.667969-1.25-21.171875-5.988281-5.324218-15.066406-4.96875-20.632812.667969-5.660157 5.625-13.476563 8.851563-21.460938 8.851563-7.96875 0-15.769531-3.210938-21.421875-8.816407-5.566406-5.679687-14.664063-6.042969-20.671875-.703125-6.191406 5.503906-6.746094 14.992188-1.242188 21.183594 6.722657 7.582031 22.796876 18.335938 43.335938 18.335938zm0 0"/><path d="m231.898438 137.453125c7.972656 0 15.769531 3.210937 21.425781 8.816406 3.1875 3.253907 12.476562 7.988281 20.671875.703125 6.191406-5.503906 6.746094-14.992187 1.238281-21.183594-6.722656-7.582031-22.792969-18.335937-43.335937-18.335937-20.535157 0-36.589844 10.726563-43.335938 18.335937l-.007812.007813c-5.503907 6.195313-4.941407 15.671875 1.25 21.175781 5.992187 5.324219 15.070312 4.96875 20.636718-.667968 5.65625-5.625 13.472656-8.851563 21.457032-8.851563zm0 0"/><path d="m116.859375 138.339844 8.035156 8.03125c5.855469 5.855468 15.355469 5.859375 21.210938 0 5.859375-5.855469 5.859375-15.351563 0-21.210938l-8.03125-8.035156c-9.273438-9.273438-21.601563-14.378906-34.707031-14.378906-13.109376 0-25.4375 5.105468-34.707032 14.378906-7.464844 7.460938-19.527344 7.460938-26.988281 0l-8.03125-8.03125c-5.859375-5.859375-15.355469-5.863281-21.214844-.003906s-5.859375 15.355468 0 21.214844l8.035157 8.035156c9.269531 9.269531 21.597656 14.378906 34.707031 14.378906 13.105469 0 25.433593-5.109375 34.707031-14.378906 7.464844-7.464844 19.523438-7.460938 26.984375 0zm0 0"/><path d="m213.261719 194.570312c9.269531 9.273438 21.597656 14.378907 34.703125 14.378907 13.109375 0 25.4375-5.105469 34.707031-14.378907 7.464844-7.464843 19.527344-7.460937 26.988281.003907l8.03125 8.027343c5.859375 5.859376 15.355469 5.859376 21.214844.003907 5.855469-5.855469 5.859375-15.355469 0-21.214844l-8.03125-8.03125c-9.273438-9.273437-21.601562-14.382813-34.710938-14.382813-13.109374 0-25.433593 5.109376-34.707031 14.382813-7.460937 7.460937-19.523437 7.457031-26.984375 0l-8.035156-8.035156c-5.855469-5.855469-15.355469-5.859375-21.210938 0-5.859374 5.855469-5.859374 15.351562-.003906 21.210937zm0 0"/><path d="m411.207031 154.402344c7.464844-7.460938 19.527344-7.457032 26.984375 0l8.035156 8.035156c5.859376 5.859375 15.355469 5.859375 21.214844 0 5.855469-5.859375 5.855469-15.355469-.003906-21.214844l-8.03125-8.03125c-9.273438-9.273437-21.597656-14.378906-34.707031-14.378906s-25.433594 5.105469-34.707031 14.378906c-7.464844 7.460938-19.527344 7.460938-26.984376 0l-8.035156-8.035156c-5.859375-5.855469-15.355468-5.855469-21.214844.003906-5.855468 5.855469-5.855468 15.355469.003907 21.210938l8.03125 8.03125c9.273437 9.273437 21.597656 14.382812 34.707031 14.382812s25.433594-5.109375 34.707031-14.382812zm0 0"/><path d="m322.902344 114.171875c5.65625-5.625 13.472656-8.851563 21.457031-8.851563 7.972656 0 15.769531 3.210938 21.425781 8.8125 3.1875 3.257813 12.472656 7.992188 20.671875.703126 6.191407-5.503907 6.746094-14.988282 1.242188-21.179688-6.726563-7.582031-22.796875-18.339844-43.339844-18.339844-20.535156 0-36.589844 10.730469-43.335937 18.339844l-.007813.007812c-5.503906 6.191407-4.941406 15.667969 1.25 21.171876 5.992187 5.328124 15.070313 4.972656 20.636719-.664063zm0 0"/><path d="m456.832031 212.273438c20.53125 0 36.558594-10.707032 43.34375-18.34375 5.503907-6.191407 4.945313-15.667969-1.25-21.171876-5.988281-5.328124-15.066406-4.972656-20.632812.664063-5.65625 5.628906-13.476563 8.851563-21.460938 8.851563-7.96875 0-15.769531-3.210938-21.421875-8.8125-5.5625-5.683594-14.664062-6.042969-20.671875-.703126-6.191406 5.503907-6.746093 14.988282-1.242187 21.179688 6.726562 7.585938 22.796875 18.335938 43.335937 18.335938zm0 0"/></svg>