<?xml version="1.0" encoding="utf-8"?>
<!-- Generator: Adobe Illustrator 23.0.2, SVG Export Plug-In . SVG Version: 6.00 Build 0)  -->
<svg version="1.1" id="Capa_1" xmlns="http://www.w3.org/2000/svg" xmlns:xlink="http://www.w3.org/1999/xlink" x="0px" y="0px"
	 viewBox="0 0 60 60" style="enable-background:new 0 0 60 60;" xml:space="preserve">
<style type="text/css">
	.st0{fill:#030202;}
</style>
<g>
	<path class="st0" d="M52.5,19.5c-3.6-8.8-12.3-15-22.4-15C16.6,4.5,5.7,15.4,5.7,28.8c0,6.7,2.7,12.7,7.1,17.1
		c4.4,4.5,10.5,7.2,17.2,7.2c13.4,0,24.3-10.9,24.3-24.3C54.3,25.5,53.7,22.4,52.5,19.5z M30,51.8c-7.5,0-14.1-3.6-18.3-9.1
		C8.8,38.9,7,34,7,28.8c0-12.7,10.3-23,23-23c8.5,0,15.9,4.6,19.9,11.5c2,3.4,3.1,7.3,3.1,11.5C53,41.5,42.7,51.8,30,51.8z"/>
</g>
<path class="st0" d="M53.5,28c0,13.4-10.9,24.3-24.3,24.3c-6.7,0-12.9-2.8-17.2-7.2c-0.4-1-0.8-2.1-1.1-3.2c-0.5-1.9-0.8-4-0.8-6.1
	c0-13.4,10.9-24.3,24.3-24.3c5.5,0,10.6,1.8,14.7,5c0.9,0.7,1.8,1.4,2.5,2.2C52.9,21.6,53.5,24.7,53.5,28z"/>
</svg>
