<?xml version="1.0" encoding="utf-8"?>
<!-- Generator: Adobe Illustrator 23.0.2, SVG Export Plug-In . SVG Version: 6.00 Build 0)  -->
<svg version="1.1" id="Layer_1" xmlns="http://www.w3.org/2000/svg" xmlns:xlink="http://www.w3.org/1999/xlink" x="0px" y="0px"
	 viewBox="0 0 595.3 841.9" style="enable-background:new 0 0 595.3 841.9;" xml:space="preserve">
<g>
	<g>
		<rect x="158.8" y="449.2" width="275.9" height="12.5"/>
	</g>
	<g>
		<path d="M369.5,462.1c-61.5-10.7-98.9-88.2-89-145.3l12.3,2.1c-8.9,51.2,25.7,121.6,78.9,130.9L369.5,462.1z"/>
	</g>
	<g>
		<path d="M297.6,571.4c-83,0-150.5-67.5-150.5-150.5c0-83,67.5-150.5,150.5-150.5c83,0,150.5,67.5,150.5,150.5
			C448.1,503.9,380.6,571.4,297.6,571.4z M297.6,282.9c-76.1,0-138.1,61.9-138.1,138.1c0,76.1,61.9,138,138.1,138
			c76.1,0,138-61.9,138-138C435.7,344.8,373.8,282.9,297.6,282.9z"/>
	</g>
	<g>
		<g>
			<path d="M239.9,386.7c-5.5,0-9.9-4.5-9.9-9.9c0-5.5,4.5-9.9,9.9-9.9c5.5,0,9.9,4.5,9.9,9.9C249.8,382.2,245.4,386.7,239.9,386.7z
				 M239.9,371.7c-2.8,0-5,2.3-5,5s2.3,5,5,5s5-2.2,5-5S242.7,371.7,239.9,371.7z"/>
		</g>
	</g>
	<g>
		<g>
			<path d="M255.5,422.5c-5.5,0-9.9-4.5-9.9-9.9c0-5.5,4.5-9.9,9.9-9.9c5.5,0,9.9,4.5,9.9,9.9C265.4,418.1,261,422.5,255.5,422.5z
				 M255.5,407.6c-2.8,0-5,2.3-5,5c0,2.8,2.3,5,5,5s5-2.2,5-5C260.5,409.8,258.2,407.6,255.5,407.6z"/>
		</g>
	</g>
	<g>
		<g>
			<path d="M219.6,422.5c-5.5,0-9.9-4.5-9.9-9.9c0-5.5,4.5-9.9,9.9-9.9c5.5,0,9.9,4.5,9.9,9.9C229.6,418.1,225.1,422.5,219.6,422.5z
				 M219.6,407.6c-2.8,0-5,2.3-5,5c0,2.8,2.3,5,5,5s5-2.2,5-5C224.6,409.8,222.4,407.6,219.6,407.6z"/>
		</g>
	</g>
	<g>
		<g>
			<path d="M211.1,391.9c-5.5,0-9.9-4.5-9.9-9.9c0-5.5,4.5-9.9,9.9-9.9c5.5,0,9.9,4.5,9.9,9.9C221,387.4,216.5,391.9,211.1,391.9z
				 M211.1,376.9c-2.8,0-5,2.3-5,5s2.3,5,5,5c2.8,0,5-2.2,5-5S213.8,376.9,211.1,376.9z"/>
		</g>
	</g>
	<g>
		<g>
			<path d="M188.5,416.7c-5.5,0-9.9-4.5-9.9-9.9c0-5.5,4.5-9.9,9.9-9.9c5.5,0,9.9,4.5,9.9,9.9C198.4,412.2,194,416.7,188.5,416.7z
				 M188.5,401.7c-2.8,0-5,2.3-5,5s2.3,5,5,5c2.8,0,5-2.2,5-5S191.3,401.7,188.5,401.7z"/>
		</g>
	</g>
	<g>
		<g>
			<path d="M217.8,360.8c-5.5,0-9.9-4.5-9.9-9.9c0-5.5,4.5-9.9,9.9-9.9c5.5,0,9.9,4.5,9.9,9.9C227.8,356.3,223.3,360.8,217.8,360.8z
				 M217.8,345.8c-2.8,0-5,2.3-5,5c0,2.8,2.3,5,5,5c2.8,0,5-2.2,5-5C222.8,348.1,220.6,345.8,217.8,345.8z"/>
		</g>
	</g>
</g>
</svg>
