<?xml version="1.0" encoding="UTF-8" standalone="no"?>
<!-- Generator: Adobe Illustrator 23.0.2, SVG Export Plug-In . SVG Version: 6.00 Build 0)  -->

<svg
   xmlns:dc="http://purl.org/dc/elements/1.1/"
   xmlns:cc="http://creativecommons.org/ns#"
   xmlns:rdf="http://www.w3.org/1999/02/22-rdf-syntax-ns#"
   xmlns:svg="http://www.w3.org/2000/svg"
   xmlns="http://www.w3.org/2000/svg"
   xmlns:sodipodi="http://sodipodi.sourceforge.net/DTD/sodipodi-0.dtd"
   xmlns:inkscape="http://www.inkscape.org/namespaces/inkscape"
   version="1.0"
   id="Layer_1"
   x="0px"
   y="0px"
   viewBox="0 0 3203.4502 2639.6001"
   xml:space="preserve"
   sodipodi:docname="twitter.svg"
   width="3203.4502"
   height="2639.6001"
   inkscape:version="0.92.4 (5da689c313, 2019-01-14)"><metadata
   id="metadata19"><rdf:RDF><cc:Work
       rdf:about=""><dc:format>image/svg+xml</dc:format><dc:type
         rdf:resource="http://purl.org/dc/dcmitype/StillImage" /><dc:title></dc:title></cc:Work></rdf:RDF></metadata><defs
   id="defs17" /><sodipodi:namedview
   pagecolor="#ffffff"
   bordercolor="#666666"
   borderopacity="1"
   objecttolerance="10"
   gridtolerance="10"
   guidetolerance="10"
   inkscape:pageopacity="0"
   inkscape:pageshadow="2"
   inkscape:window-width="640"
   inkscape:window-height="480"
   id="namedview15"
   showgrid="false"
   fit-margin-top="0"
   fit-margin-left="0"
   fit-margin-right="0"
   fit-margin-bottom="0"
   inkscape:zoom="0.034667969"
   inkscape:cx="1601.6628"
   inkscape:cy="1320.05"
   inkscape:window-x="0"
   inkscape:window-y="0"
   inkscape:window-maximized="0"
   inkscape:current-layer="Layer_1" />
<style
   type="text/css"
   id="style2">
	.st0{fill:#9A9A9A;}
	.st1{display:none;}
	.st2{display:inline;fill:#9A9A9A;}
	.st3{display:none;fill:#9A9A9A;}
</style>
<path
   id="twetter"
   class="st0"
   d="m 3187.1628,440.2 c 23.9,-35.9 21.3,-83.4 -6.5,-116.3 -27.8,-33.1 -74,-43.7 -113.5,-26.3 -2.5,1.1 -4.9,2.2 -7.4,3.3 22.8,-40.9 41.7,-84.3 56.2,-129.6 12.3,-38.4 -0.4,-80.4 -32,-105.5 -31.5,-25.1 -75.3,-28.1 -110,-7.5 -97.9,58.1 -202.7,100.8 -312.1,127.4 C 2530.7628,67 2358.4628,0 2180.7628,0 c -394,0 -714.6,320.4 -714.6,714.1 0,11.3 0.2,22.5 0.8,33.7 -423,-51.6 -813.50004,-265.9 -1085.10004,-599.3 -20.1,-24.7 -51,-38 -82.8,-35.5 -31.7,2.5 -60.3,20.4 -76.3,47.9 -63.3,108.6 -96.8,232.8 -96.8,359.2 0,120.8 30.2,237.2 85.6,339.9 -14.9,1 -29.6,5.4 -42.8,13.2 -29.6,17.5 -47.8,49.3 -47.8,83.6 v 7.8 c 0,213.8 95.9,410.1 250.2,542.6 -3.3,2.9 -6.5,6 -9.5,9.4 -22.5,25.7 -30,61.2 -19.6,93.7 66.4,207.3 221.5,368.1 415.8,445.5 -157.8,79.3 -332,120.6 -513.5,120.6 -45.8,0 -91.5,-2.7 -136,-7.8 -44.900001,-5.2 -87.400001,21.2 -102.7000013,63.8 -15.2,42.5 1,90 39.0000003,114.4 298.600001,191.6 644.000001,292.8 998.900041,292.8 697.1,0 1133.6,-329.1 1377.1,-605.3 303,-343.7 476.7,-798.8 476.7,-1248.5 0,-11.1 0,-21.9 -0.2,-32.5 112.7,-88.5 210.1,-193.5 290,-313.1 z m -445.7,186.9 c -26.7,19.2 -41.8,50.7 -40.2,83.5 1.2,23.9 1.8,48.5 1.8,75 0,403.1 -156.1,811.4 -428.2,1120.1 -217,246 -606.7,539.5 -1231.4,539.5 -191.10004,0 -379.20004,-32.8 -557.00004,-96.3 212.5,-38.3 411.3,-127.4 584.30004,-263.2 32.3,-25.3 45.2,-68.3 32.1,-107.2 -13,-38.9 -49.2,-65.5 -90.3,-66.3 -170.90004,-3.2 -325.60004,-89.3 -419.00004,-224.9 48.8,-3 97.2,-10.9 144.5,-23.7 43.5,-11.7 73.2,-51.8 71.7,-96.8 -1.5,-45 -33.7,-83.1 -77.8,-92 -193.4,-39.1 -344.4,-184.3 -397,-367.1 51.9,13.7 105.4,21.6 159.2,23.4 43.4,1.5 82.4,-26 95.7,-67.3 13.3,-41.3 -2.5,-86.4 -38.5,-110.4 -144.9,-96.7 -231.4,-258.7 -231.4,-433.3 0,-44.2 5.6,-88 16.5,-130.5 325.3,336 768.20004,538.6 1237.60004,562 30.7,1.5 59.8,-11.4 79.4,-34.8 19.5,-23.3 26.9,-54.6 20,-84.2 -8.9,-38.2 -13.4,-78.2 -13.4,-118.6 0,-286.7 233.4,-520 520.4,-520 143.2,0 281.8,59.8 380,164.2 22.9,24.2 56.6,35.1 89.3,28.7 36.8,-7.2 73.1,-15.9 109,-26.1 -18,14.3 -37,27.5 -57,39.4 -39.2,23.5 -56.8,71.3 -42,114.6 14.8,43.3 57.7,70.5 103.2,65.1 15.8,-1.8 31.6,-4 47.3,-6.4 -22.1,18.5 -45.1,36.5 -68.8,53.6 z"
   inkscape:connector-curvature="0"
   style="fill:#9a9a9a" />
<g
   id="instagram"
   class="st1"
   style="display:none"
   transform="translate(-2494.3372,-1623.7)">
	<path
   class="st2"
   d="M 4783.7,1623 H 3408.3 c -348.8,0 -632.5,283.7 -632.5,632.5 V 3631 c 0,348.8 283.8,632.5 632.5,632.5 h 1375.5 c 348.8,0 632.5,-283.7 632.5,-632.5 V 2255.5 c 0,-348.8 -283.8,-632.5 -632.6,-632.5 z m 466,2008 c 0,256.9 -209,466 -466,466 H 3408.3 c -256.9,0 -465.9,-209 -465.9,-466 V 2255.5 c 0,-256.9 209,-465.9 465.9,-465.9 h 1375.5 c 256.9,0 466,209 466,465.9 z"
   id="path5"
   inkscape:connector-curvature="0"
   style="display:inline;fill:#9a9a9a" />
	<path
   class="st2"
   d="m 4834,2105.6 c -56,0 -101.5,45.5 -101.5,101.4 0,56 45.5,101.4 101.5,101.4 55.9,0 101.4,-45.4 101.4,-101.4 0,-55.9 -45.5,-101.4 -101.4,-101.4 z"
   id="path7"
   inkscape:connector-curvature="0"
   style="display:inline;fill:#9a9a9a" />
	<path
   class="st2"
   d="m 4096,2296.1 c -356.9,0 -647.2,290.3 -647.2,647.2 0,356.9 290.3,647.2 647.2,647.2 356.9,0 647.2,-290.3 647.2,-647.2 0,-356.9 -290.3,-647.2 -647.2,-647.2 z m 0,1127.9 c -265.1,0 -480.7,-215.7 -480.7,-480.7 0,-265 215.6,-480.6 480.7,-480.6 265,0 480.6,215.6 480.6,480.6 0,265 -215.6,480.7 -480.6,480.7 z"
   id="path9"
   inkscape:connector-curvature="0"
   style="display:inline;fill:#9a9a9a" />
</g>
<path
   id="phone"
   class="st3"
   d="m 2994.1628,2220.9 -78.4,-424.4 c -6,-32.9 -31.5,-58.7 -64.3,-65.3 l -616.2,-123.2 c -26.8,-5.3 -54.5,3 -73.8,22.4 l -253.1,253.1 c -426.4,-190.4 -662.1,-426.5 -869.7,-871.3 l 252.2,-252.2 c 19.3,-19.3 27.7,-47 22.3,-73.8 l -123.2,-616.3 c -6.6,-32.8 -32.5,-58.3 -65.3,-64.3 L 700.16276,-72.7 c -10.9,-2 -22.1,-1.8 -32.9,0.7 -111.1,25.2 -212.4,81.2 -293.1,161.9 -139.6,139.7 -193,343.7 -154.2,590.1 27.3,173.6 76.2,359 140.4,535.3 v 0 c 5.8,17.3 13.2,36.7 21.7,57.6 12.4,32 25.2,63.6 38.6,94.7 3.3,7.7 7.6,14.5 12.8,20.6 46,97.2 100.1,200.3 135,265.5 1.9,8 5,15.7 9.4,23.1 8.7,14.5 17.5,28.6 26.3,42.7 0.5,0.9 0.8,1.5 0.8,1.5 h 0.1 c 79.1,125.7 166.3,236.8 260,330.9 l 5.1,5.1 c 377.00004,375.5 955.60004,579.2 1371.50004,644.6 165.8,26.1 344,13.9 490.1,-75.4 36.3,-22.1 69.9,-48.7 100,-78.8 80.7,-80.7 136.7,-182 161.9,-293.1 2.3,-11.2 2.5,-22.4 0.5,-33.4 z m -278,210.5 c -102.7,102.7 -253.8,139.1 -449.2,108.4 -390.6,-61.4 -932.3,-251.1 -1281.50004,-598.9 l -5,-5 c -94.3,-94.7 -182.1,-209.3 -261,-340.9 -82.5,-144.4 -184.7,-385.4 -200.5,-423 -63,-170.4 -111,-349.9 -137.4,-517.7 -30.7,-195.4 5.7,-346.5 108.3,-449.1 55,-55 123.2,-94.3 198.1,-114.2 l 352.70004,65.1 103.9,519.1 -261.50004,261.4 c -23.9,23.9 -30.7,60.2 -16.8,91.1 237.70004,532.2 516.50004,810.8 1028.70004,1027.9 30.7,13 66.1,6.1 89.6,-17.4 l 261.4,-261.4 519.1,103.8 65.1,352.8 c -19.7,74.8 -59.1,143 -114,198 z"
   inkscape:connector-curvature="0"
   style="display:none;fill:#9a9a9a" />
<path
   id="email"
   class="st3"
   d="m 3434.9628,158.3 c -3.2,-24.4 -14.9,-47 -33.4,-63.8 -67.9,-61.5 -155.7,-95.2 -246.8,-95.2 H 48.562759 c -91.2,0 -178.899999,33.8 -246.899999,95.3 -18.5,16.7 -30.2,39.4 -33.4,63.7 -55.4,70.5 -88.4,159.2 -88.4,255.6 v 1811.4 c 0,228.6 185.9,414.6 414.499999,414.6 H 1827.1628 v 0.1 h 675.7 113.2 493 c 228.5,0 414.5,-186.1 414.5,-414.6 V 413.8 c -0.1,-96.3 -33.2,-185 -88.6,-255.5 z M 94.362759,207.9 H 3108.8628 v 0.1 c 2.4,0 4.6,0.3 7,0.3 l -1481.7,1159 c -19.1,15 -45.9,15 -65.1,0 L 87.362759,208.3 c 2.3,-0.1 4.6,-0.4 7,-0.4 z M 3314.7628,2225.2 c 0,113.6 -92.3,205.9 -205.8,205.9 h -492.9 v -0.1 h -590.6 -198.3 H 94.362759 c -113.5,0 -205.799999,-92.3 -205.799999,-205.9 V 413.9 c 0,-29.4 6.2,-57.3 17.399999,-82.5 L 1440.5628,1531.8 c 47.4,37.1 104.3,55.6 161.1,55.6 56.8,0 113.7,-18.5 161.1,-55.6 l 1534.6,-1200.5 c 11.1,25.3 17.4,53.2 17.4,82.6 z"
   inkscape:connector-curvature="0"
   style="display:none;fill:#9a9a9a" />
</svg>