<?xml version="1.0" encoding="UTF-8" standalone="no"?>
<!-- Created with Inkscape (http://www.inkscape.org/) -->

<svg
   xmlns:dc="http://purl.org/dc/elements/1.1/"
   xmlns:cc="http://creativecommons.org/ns#"
   xmlns:rdf="http://www.w3.org/1999/02/22-rdf-syntax-ns#"
   xmlns:svg="http://www.w3.org/2000/svg"
   xmlns="http://www.w3.org/2000/svg"
   xmlns:sodipodi="http://sodipodi.sourceforge.net/DTD/sodipodi-0.dtd"
   xmlns:inkscape="http://www.inkscape.org/namespaces/inkscape"
   width="54.160206mm"
   height="58.499374mm"
   viewBox="0 0 54.160206 58.499374"
   version="1.1"
   id="svg8"
   inkscape:version="0.92.4 (5da689c313, 2019-01-14)"
   sodipodi:docname="ايقونة اطبائنا.svg">
  <defs
     id="defs2" />
  <sodipodi:namedview
     id="base"
     pagecolor="#ffffff"
     bordercolor="#666666"
     borderopacity="1.0"
     inkscape:pageopacity="0.0"
     inkscape:pageshadow="2"
     inkscape:zoom="0.35"
     inkscape:cx="119.49286"
     inkscape:cy="59.121427"
     inkscape:document-units="mm"
     inkscape:current-layer="layer1"
     showgrid="false"
     fit-margin-top="0"
     fit-margin-left="0"
     fit-margin-right="0"
     fit-margin-bottom="0"
     inkscape:window-width="1920"
     inkscape:window-height="1017"
     inkscape:window-x="1912"
     inkscape:window-y="-8"
     inkscape:window-maximized="1" />
  <metadata
     id="metadata5">
    <rdf:RDF>
      <cc:Work
         rdf:about="">
        <dc:format>image/svg+xml</dc:format>
        <dc:type
           rdf:resource="http://purl.org/dc/dcmitype/StillImage" />
        <dc:title></dc:title>
      </cc:Work>
    </rdf:RDF>
  </metadata>
  <g
     inkscape:label="Layer 1"
     inkscape:groupmode="layer"
     id="layer1"
     transform="translate(-74.217515,-105.9765)">
    <g
       id="g29"
       transform="matrix(0.26458333,0,0,0.26458333,22.703141,23.796921)">
      <path
         id="path12"
         d="m 391.7,487.1 c -26.1,-21.4 -54.2,-35.6 -59.9,-38.4 -0.6,-0.3 -1,-1 -1,-1.7 v -40.6 c 5.1,-3.4 8.5,-9.2 8.5,-15.8 v -42.1 c 0,-21 -17,-37.9 -37.9,-37.9 h -9 c -21,0 -37.9,17 -37.9,37.9 v 42.1 c 0,6.6 3.4,12.4 8.5,15.8 V 447 c 0,0.7 -0.4,1.4 -1,1.7 -5.8,2.8 -33.8,17 -59.9,38.4 -4.7,3.8 -7.4,9.7 -7.4,15.8 v 28.8 h 204.7 v -28.8 c -0.3,-6.1 -3,-11.9 -7.7,-15.8 z m 0,0"
         class="st0"
         inkscape:connector-curvature="0"
         style="fill:#c2c2c1" />
      <path
         id="path14"
         d="m 485.4,458.7 c -21.8,-18 -45.4,-29.9 -50.2,-32.2 -0.6,-0.2 -0.9,-0.8 -0.9,-1.4 v -34 c 4.2,-2.9 7.1,-7.7 7.1,-13.3 v -35.3 c 0,-17.5 -14.2,-31.8 -31.8,-31.8 h -7.5 c -17.5,0 -31.8,14.2 -31.8,31.8 v 35.3 c 0,5.5 2.8,10.4 7.1,13.3 v 34 c 0,0.6 -0.3,1.1 -0.9,1.4 -3,1.4 -13.2,6.6 -25.7,14.6 12.5,6.9 32.2,18.7 50.9,34.1 6.6,5.4 10.9,12.8 12.5,21 h 77.6 V 472 c -0.2,-5.2 -2.4,-10.1 -6.4,-13.3 z m 0,0"
         class="st1"
         inkscape:connector-curvature="0"
         style="display:none" />
      <path
         id="path16"
         d="m 217.2,426.5 c -0.6,-0.2 -0.9,-0.8 -0.9,-1.4 v -34 c 4.2,-2.9 7.1,-7.7 7.1,-13.3 v -35.3 c 0,-17.5 -14.2,-31.8 -31.8,-31.8 H 184 c -17.5,0 -31.8,14.2 -31.8,31.8 v 35.3 c 0,5.5 2.8,10.4 7.1,13.3 v 34 c 0,0.6 -0.3,1.1 -0.9,1.4 -4.8,2.3 -28.4,14.2 -50.2,32.2 -3.9,3.3 -6.2,8.1 -6.2,13.2 v 24.2 h 77.6 c 1.5,-8.2 5.9,-15.6 12.5,-21 18.6,-15.4 38.4,-27.2 50.9,-34.1 -12.6,-8 -22.8,-13.1 -25.8,-14.5 z m 0,0"
         class="st1"
         inkscape:connector-curvature="0"
         style="display:none" />
    </g>
  </g>
  <style
     id="style10"
     type="text/css">
	.st0{fill:#C2C2C1;}
	.st1{display:none;}
</style>
</svg>
