<?xml version="1.0" encoding="utf-8"?>
<!-- Generator: Adobe Illustrator 23.0.2, SVG Export Plug-In . SVG Version: 6.00 Build 0)  -->
<svg version="1.0" id="Layer_1" xmlns="http://www.w3.org/2000/svg" xmlns:xlink="http://www.w3.org/1999/xlink" x="0px" y="0px"
	 viewBox="0 0 595.3 841.9" style="enable-background:new 0 0 595.3 841.9;" xml:space="preserve">
<g>
	<path d="M216.2,276.2h160.7c25.5,0,47.1-20.6,47.1-47.1V213c0-26.6-21.6-47.1-47.1-47.1H216.2c-25.5,0-47.1,20.6-47.1,47.1v16.1
		C169.1,255.7,190.7,276.2,216.2,276.2L216.2,276.2z M216.2,276.2"/>
	<path d="M412.1,323.5c-7.1-7.1-14.2-14.2-19-19c-5.2,1.1-10.7,1.7-16.3,1.7H216.2c-5.6,0-11-0.6-16.3-1.7c-4.8,4.8-11.9,11.9-19,19
		c-18,18-27.9,41.9-27.9,67.4h287.1C440.1,365.4,430.1,341.4,412.1,323.5L412.1,323.5z M412.1,323.5"/>
	<path d="M153,662.9c0,8.3,6.7,15,15,15h257.1c8.3,0,15-6.7,15-15v-49.3H153V662.9z M153,662.9"/>
	<path d="M153,583.6h287.1V420.9H153V583.6z M312.6,549.4h-32.1c-8.3,0-15-6.7-15-15c0-8.3,6.7-15,15-15h32.1c8.3,0,15,6.7,15,15
		C327.6,542.6,320.9,549.4,312.6,549.4L312.6,549.4z M248.3,455.1h96.4c8.3,0,15,6.7,15,15s-6.7,15-15,15h-96.4c-8.3,0-15-6.7-15-15
		S240,455.1,248.3,455.1L248.3,455.1z M248.3,455.1"/>
</g>
</svg>
