<?xml version="1.0" encoding="utf-8"?>
<!-- Generator: Adobe Illustrator 23.0.2, SVG Export Plug-In . SVG Version: 6.00 Build 0)  -->
<svg version="1.1" id="Layer_1" xmlns="http://www.w3.org/2000/svg" xmlns:xlink="http://www.w3.org/1999/xlink" x="0px" y="0px"
	 viewBox="0 0 595.3 841.9" style="enable-background:new 0 0 595.3 841.9;" xml:space="preserve">
<style type="text/css">
	.st0{fill:#FEFEFE;}
	.st1{fill:#FDFEFE;}
	.st2{fill:#F9FCFC;}
	.st3{fill:#FCFDFD;}
	.st4{fill:#4C4949;}
	.st5{fill:#383435;}
	.st6{fill:#2C2929;}
</style>
<path d="M421,421.3c0,67.6-55,122.1-123.1,122c-66.3,0-121.2-55.4-121.2-122.2c0-67.3,55.2-122.6,122.4-122.6
	C365.9,298.6,421,354,421,421.3z"/>
<path class="st0" d="M305.8,501.7c-10.7-1.5-12-3.9-7.9-13.4c5.1-11.9,0.1-20.3-12.7-21.1c-5-0.3-9.1-1.8-11.5-6.7
	c-2.4-5-1.4-9.1,1.8-13.6c10.4-14.2,19.2-29.3,22.8-46.9c1.5-7.3,1.7-14.4-1.3-21.3c-4.3-10.1-3.2-19.7,2.4-28.8
	c6.7-10.7,12.9-21.7,16.2-34c1.5-5.5,5-2.4,7.1-1.9c27.7,6.3,49.8,21.2,66.1,44.4c47.8,67.7,4,163.6-78.5,172
	c-4.4,0.4-7.4-0.2-4.8-5.4c2.5-5,2.6-8.7-2.6-12.6C297.7,508.5,302.5,504.9,305.8,501.7z"/>
<path class="st1" d="M235.9,413.5c0,3.4,0.1,6.8,0,10.3c-0.1,3.9-2.3,6.2-6.1,6.2c-3.5,0-5.7-2.2-5.9-5.7c-0.2-3.7,0-7.4,0-12
	c-4,2-5,5.3-7.1,7.5c-2.4,2.4-5,3.5-8.1,1.5c-3.3-2.2-3.8-5.6-1.8-8.6c7-10,14.3-19.7,21.4-29.5c1.6-2.2,2.5-1.1,3.6,0.5
	c6.7,9.6,13.5,19.1,20,28.8c2,3,1.8,6.4-1.5,8.7c-3.3,2.3-6.2,1.2-8.5-1.7c-1.6-2-3.1-4.1-4.6-6.1
	C236.8,413.3,236.4,413.4,235.9,413.5z"/>
<path class="st2" d="M235.9,454.3c0,3.5,0.1,7,0,10.5c-0.1,3.6-2.1,5.8-5.6,6c-3.4,0.2-6.2-1.6-6.3-5.1c-0.3-7.4-0.3-14.9,0.1-22.3
	c0.2-3.5,3.1-5.3,6.4-5c3,0.3,5.2,2.2,5.3,5.5C235.9,447.3,235.8,450.8,235.9,454.3C235.8,454.3,235.9,454.3,235.9,454.3z"/>
<path class="st3" d="M235.9,495.7c0,1.2,0.2,2.4,0,3.5c-0.6,3.2,1.9,7.2-1.8,9.6c-1.5,1-10.2-7.7-10.3-10.4
	c-0.2-4.4-0.2-8.9,0.1-13.3c0.2-3.8,2.7-6.1,6.5-5.9c3.4,0.2,5.5,2.4,5.6,6C235.9,488.7,235.9,492.2,235.9,495.7
	C235.9,495.7,235.9,495.7,235.9,495.7z"/>
<path class="st4" d="M313.5,348.7c-2.3-1.3-8.2,1.8-7.8-2.9c0.3-3.8,5.9-1.3,9.1-1.6c0.5,0,0.9,0,1.4,0.1c1.9,0.6,5.5-0.8,5.1,2.8
	c-0.3,2.6-3.2,1.8-5.2,1.8C315.4,348.9,314.7,348.8,313.5,348.7z"/>
<path class="st5" d="M345.3,351.4c0.1,1.6-1.1,2.3-2.1,2.1c-4.2-1-8.5-2-12.5-3.7c-1.7-0.7-1.2-3.4,0.9-3.3
	c4.6,0.1,9.1,1.4,13.1,3.9C344.9,350.5,345.1,351.1,345.3,351.4z"/>
<path class="st6" d="M365.2,366.1c-0.4,1.4-1.4,1.8-2.6,1.3c-1.1-0.4-2.2-1.1-2.9-1.9c-2.4-2.8-6.8-3.6-7.6-7.7
	c-0.2-0.9,1-1.9,1.9-1.6c4.4,1.8,7.6,5.3,11,8.5C365.1,364.9,365.1,365.6,365.2,366.1z"/>
</svg>
