<?xml version="1.0" encoding="iso-8859-1"?>
<!-- Generator: Adobe Illustrator 19.0.0, SVG Export Plug-In . SVG Version: 6.00 Build 0)  -->
<svg version="1.1" id="Capa_1" xmlns="http://www.w3.org/2000/svg" xmlns:xlink="http://www.w3.org/1999/xlink" x="0px" y="0px"
	 viewBox="0 0 480 480" style="enable-background:new 0 0 480 480;" xml:space="preserve">
<g>
	<g>
		<path d="M480,257.326H312c-4.418-0.003-8.002,3.577-8.005,7.995c0,0.726,0.098,1.449,0.293,2.149l22.504,81.008
			c13.317,47.934-14.746,97.588-62.681,110.905c-27.618,7.673-57.239,1.743-79.775-15.969l-2.848-2.24
			c-27.165-21.479-39.699-56.572-32.288-90.4l18.616-83.736c0.946-4.316-1.787-8.581-6.103-9.527
			c-0.563-0.123-1.137-0.185-1.713-0.185H0v16h150.024l-16.424,74c-8.709,39.833,6.053,81.145,38.032,106.44l2.856,2.232
			c46.072,36.183,112.753,28.166,148.936-17.906c20.836-26.53,27.809-61.389,18.784-93.894l-19.688-70.872H480V257.326z"/>
	</g>
</g>
<g>
	<g>
		<path d="M363.159,2.006c-3.067-1.328-6.636-0.61-8.951,1.801l-82.128,86.04c-31.419,32.9-56.786,71.085-74.936,112.8
			c-1.315,3.017-0.648,6.53,1.68,8.856l13.864,13.824h-18.96c-3.408-0.001-6.442,2.157-7.56,5.376
			c-8.648,24.955-14.736,50.725-18.168,76.912l-4,30.792c-2.796,21.285,3.872,42.727,18.248,58.672l3.152,3.504
			c27.147,30.176,73.618,32.632,103.794,5.484c20.23-18.199,28.749-46.087,22.142-72.484
			c-19.882-80.088-12.718-164.504,20.376-240.096l35.608-80.96C369.076,8.472,367.213,3.762,363.159,2.006z M317.072,87.006
			c-34.53,78.832-42.012,166.872-21.28,250.4c7.693,30.817-11.053,62.036-41.871,69.729c-20.637,5.151-42.432-1.507-56.665-17.313
			l-3.144-3.504c-11.231-12.459-16.448-29.207-14.28-45.84h0.032l4-30.8c3.041-23.224,8.267-46.11,15.608-68.352H232
			c4.418-0.001,7.999-3.583,7.998-8.002c0-2.121-0.843-4.154-2.342-5.654l-23.632-23.64c17.222-38.055,40.754-72.925,69.6-103.136
			l50.704-53.088L317.072,87.006z"/>
	</g>
</g>
<g>
	<g>
		<path d="M181.656,203.67l-72-72c-3.123-3.126-8.188-3.128-11.314-0.006c-0.694,0.694-1.255,1.509-1.654,2.406l-32,72
			c-1.798,4.036,0.016,8.765,4.051,10.563c1.026,0.457,2.137,0.693,3.261,0.693h104c4.418-0.001,7.999-3.583,7.998-8.002
			C183.998,207.204,183.155,205.17,181.656,203.67z M84.312,201.326l22.264-50.104l50.112,50.104H84.312z"/>
	</g>
</g>
<g>
</g>
<g>
</g>
<g>
</g>
<g>
</g>
<g>
</g>
<g>
</g>
<g>
</g>
<g>
</g>
<g>
</g>
<g>
</g>
<g>
</g>
<g>
</g>
<g>
</g>
<g>
</g>
<g>
</g>
</svg>
