<?xml version="1.0" encoding="utf-8"?>
<!-- Generator: Adobe Illustrator 23.0.2, SVG Export Plug-In . SVG Version: 6.00 Build 0)  -->
<svg version="1.0" id="Layer_1" xmlns="http://www.w3.org/2000/svg" xmlns:xlink="http://www.w3.org/1999/xlink" x="0px" y="0px"
	 viewBox="0 0 595.3 841.9" style="enable-background:new 0 0 595.3 841.9;" xml:space="preserve">
<style type="text/css">
	.st0{clip-path:url(#SVGID_2_);}
</style>
<g>
	<g>
		<defs>
			<rect id="SVGID_1_" x="153.9" y="273.8" width="286.1" height="295.2"/>
		</defs>
		<clipPath id="SVGID_2_">
			<use xlink:href="#SVGID_1_"  style="overflow:visible;"/>
		</clipPath>
		<path class="st0" d="M437.2,557.2l-33.1-33.1c1.1-1.1,1.7-2.5,1.7-4.1v-58c0-1.6-0.6-3-1.7-4.1L296.4,350.2c0,0,0,0,0,0
			l-53.8-53.8l-33.1,33.1L192.9,313l29-29c2.3-2.3,2.3-6,0-8.3c-2.3-2.3-6-2.3-8.3,0l-58,58c-2.3,2.3-2.3,6,0,8.3
			c1.1,1.1,2.6,1.7,4.1,1.7c1.5,0,3-0.6,4.1-1.7l20.7-20.7l16.6,16.6l-24.8,24.8l58,58v0l103.5,103.5c1.1,1.1,2.6,1.7,4.1,1.7h48.3
			c0.3,0.9,0.7,1.7,1.4,2.4l37.3,37.3c1.1,1.1,2.6,1.7,4.1,1.7c1.5,0,3-0.6,4.1-1.7C439.5,563.2,439.5,559.5,437.2,557.2
			L437.2,557.2z M234.3,404l-41.4-41.4l49.7-49.7l41.4,41.4L234.3,404z M394.1,514.1h-49.7L321.3,491l20.7-20.7c2.3-2.3,2.3-6,0-8.3
			c-2.3-2.3-6-2.3-8.3,0L313,482.7l-8.3-8.3l12.5-12.5c2.3-2.3,2.3-6,0-8.3c-2.3-2.3-6-2.3-8.3,0l-12.5,12.5l-16.6-16.6l20.7-20.7
			c2.3-2.3,2.3-6,0-8.3c-2.3-2.3-6-2.3-8.3,0l-20.7,20.7l-8.3-8.3l12.5-12.5c2.3-2.3,2.3-6,0-8.3c-2.3-2.3-6-2.3-8.3,0L255,424.7
			l-12.4-12.4l49.7-49.7l101.8,101.8V514.1z M394.1,514.1"/>
	</g>
</g>
</svg>
