<?xml version="1.0" encoding="utf-8"?>
<!-- Generator: Adobe Illustrator 23.0.2, SVG Export Plug-In . SVG Version: 6.00 Build 0)  -->
<svg version="1.0" id="Layer_1" xmlns="http://www.w3.org/2000/svg" xmlns:xlink="http://www.w3.org/1999/xlink" x="0px" y="0px"
	 viewBox="0 0 595.3 841.9" style="enable-background:new 0 0 595.3 841.9;" xml:space="preserve">
<style type="text/css">
	.st0{clip-path:url(#SVGID_2_);}
</style>
<g>
	<g>
		<defs>
			<rect id="SVGID_1_" x="41" y="239.9" width="512" height="364"/>
		</defs>
		<clipPath id="SVGID_2_">
			<use xlink:href="#SVGID_1_"  style="overflow:visible;"/>
		</clipPath>
		<path class="st0" d="M536.2,487.1c-2-6.1-7.8-10.3-14.2-10.3h-48.2c-8.3,0-15,6.7-15,15s6.7,15,15,15h21.8
			c-36.4,36.9-84,60.3-136,66.5c-8.2,1-14.1,8.4-13.1,16.7c0.8,6.5,6.9,14.3,16.7,13.1c59.2-7.1,113.5-33.9,154.8-76.2l5.9,17.8
			c2.1,6.3,7.9,10.3,14.2,10.3c10.7,0,17.3-10.5,14.2-19.7L536.2,487.1z M536.2,487.1"/>
		<path class="st0" d="M516.3,392l34-48.1c2.4-3.4,3.3-7.6,2.5-11.6c-0.8-4-3.3-7.6-6.8-9.8l-108.1-67.6
			c-40.5-25.3-83.5-13.3-104.8-2.6l-36,18l-36-18c-21.3-10.7-64.3-22.7-104.9,2.6L48.1,322.5c-3.5,2.2-5.9,5.7-6.8,9.8
			c-0.8,4,0.1,8.2,2.4,11.6l34,48.1c41.9,59.3,110.3,94.8,182.9,94.8h72.8C406,486.8,474.4,451.4,516.3,392L516.3,392z M172.1,280.4
			c28.9-18.1,60.3-8.9,75.5-1.3l42.7,21.3c4.2,2.1,9.2,2.1,13.4,0l42.7-21.3c15.2-7.6,46.6-16.8,75.5,1.3l69.4,43.4l-128.9,9.9
			c-22.8,1.8-44.8,7.5-65.5,17c-20.7-9.5-42.7-15.3-65.5-17l-128.9-9.9L172.1,280.4z M333.4,456.8h-72.8
			c-62.9,0-122.1-30.7-158.4-82.1l-15.6-22.1l142.6,11c21,1.6,41.1,7.2,59.9,16.6c1.8,0.9,4.1,2.2,7.9,2.2c3.7,0,6.1-1.3,7.9-2.2
			c18.8-9.4,39-15,59.9-16.6l142.6-11l-15.6,22.1C455.5,426.1,396.3,456.8,333.4,456.8L333.4,456.8z M333.4,456.8"/>
		<path class="st0" d="M234.5,573.4c-52-6.2-99.6-29.6-136-66.5h21.8c8.3,0,15-6.7,15-15s-6.7-15-15-15H72.1
			c-6.5,0-12.2,4.1-14.2,10.3l-16.1,48.2c-3.1,9.2,3.5,19.7,14.2,19.7c6.3,0,12.1-4,14.2-10.3l5.9-17.8
			c41.3,42.3,95.6,69.1,154.8,76.2c9.8,1.2,15.9-6.6,16.7-13.1C248.6,581.8,242.7,574.4,234.5,573.4L234.5,573.4z M234.5,573.4"/>
	</g>
</g>
</svg>
