<?xml version="1.0" encoding="UTF-8" standalone="no"?>
<!-- Generator: Adobe Illustrator 23.0.2, SVG Export Plug-In . SVG Version: 6.00 Build 0)  -->

<svg
   xmlns:dc="http://purl.org/dc/elements/1.1/"
   xmlns:cc="http://creativecommons.org/ns#"
   xmlns:rdf="http://www.w3.org/1999/02/22-rdf-syntax-ns#"
   xmlns:svg="http://www.w3.org/2000/svg"
   xmlns="http://www.w3.org/2000/svg"
   xmlns:sodipodi="http://sodipodi.sourceforge.net/DTD/sodipodi-0.dtd"
   xmlns:inkscape="http://www.inkscape.org/namespaces/inkscape"
   version="1.0"
   id="Layer_1"
   x="0px"
   y="0px"
   viewBox="0 0 2080.8 3020.5"
   xml:space="preserve"
   sodipodi:docname="location.svg"
   width="2080.8"
   height="3020.5"
   inkscape:version="0.92.4 (5da689c313, 2019-01-14)"><metadata
   id="metadata43"><rdf:RDF><cc:Work
       rdf:about=""><dc:format>image/svg+xml</dc:format><dc:type
         rdf:resource="http://purl.org/dc/dcmitype/StillImage" /><dc:title></dc:title></cc:Work></rdf:RDF></metadata><defs
   id="defs41" /><sodipodi:namedview
   pagecolor="#ffffff"
   bordercolor="#666666"
   borderopacity="1"
   objecttolerance="10"
   gridtolerance="10"
   guidetolerance="10"
   inkscape:pageopacity="0"
   inkscape:pageshadow="2"
   inkscape:window-width="640"
   inkscape:window-height="480"
   id="namedview39"
   showgrid="false"
   fit-margin-top="0"
   fit-margin-left="0"
   fit-margin-right="0"
   fit-margin-bottom="0"
   inkscape:zoom="0.034667969"
   inkscape:cx="-2522.0662"
   inkscape:cy="1510.35"
   inkscape:window-x="0"
   inkscape:window-y="0"
   inkscape:window-maximized="0"
   inkscape:current-layer="Layer_1" />
<style
   type="text/css"
   id="style2">
	.st0{display:none;fill:#9A9A9A;}
	.st1{display:none;}
	.st2{display:inline;fill:#9A9A9A;}
	.st3{display:none;fill:#C48430;}
	.st4{display:inline;fill:#C48430;}
	.st5{display:inline;}
	.st6{fill:#C48430;}
</style>
<path
   id="twetter"
   class="st0"
   d="m 5564.7,-4644.5 c 23.9,-35.9 21.3,-83.4 -6.5,-116.3 -27.8,-33.1 -74,-43.7 -113.5,-26.3 -2.5,1.1 -4.9,2.2 -7.4,3.3 22.8,-40.9 41.7,-84.3 56.2,-129.6 12.3,-38.4 -0.4,-80.4 -32,-105.5 -31.5,-25.1 -75.3,-28.1 -110,-7.5 -97.9,58.1 -202.7,100.8 -312.1,127.4 -131.1,-118.7 -303.4,-185.7 -481.1,-185.7 -394,0 -714.6,320.4 -714.6,714.1 0,11.3 0.2,22.5 0.8,33.7 -423,-51.6 -813.5,-265.9 -1085.1,-599.3 -20.1,-24.7 -51,-38 -82.8,-35.5 -31.7,2.5 -60.3,20.4 -76.3,47.9 -63.3,108.6 -96.8,232.8 -96.8,359.2 0,120.8 30.2,237.2 85.6,339.9 -14.9,1 -29.6,5.4 -42.8,13.2 -29.6,17.5 -47.8,49.3 -47.8,83.6 v 7.8 c 0,213.8 95.9,410.1 250.2,542.6 -3.3,2.9 -6.5,6 -9.5,9.4 -22.5,25.7 -30,61.2 -19.6,93.7 66.4,207.3 221.5,368.1 415.8,445.5 -157.8,79.3 -332,120.6 -513.5,120.6 -45.8,0 -91.5,-2.7 -136,-7.8 -44.9,-5.2 -87.4,21.2 -102.7,63.8 -15.2,42.5 1,90 39,114.4 298.6,191.6 644,292.8 998.9,292.8 697.1,0 1133.6,-329.1 1377.1,-605.3 303,-343.7 476.7,-798.8 476.7,-1248.5 0,-11.1 0,-21.9 -0.2,-32.5 112.7,-88.4 210.1,-193.4 290,-313.1 z m -445.7,187 c -26.7,19.2 -41.8,50.7 -40.2,83.5 1.2,23.9 1.8,48.5 1.8,75 0,403.1 -156.1,811.4 -428.2,1120.1 -217,246 -606.7,539.5 -1231.4,539.5 -191.1,0 -379.2,-32.8 -557,-96.3 212.5,-38.3 411.3,-127.4 584.3,-263.2 32.3,-25.3 45.2,-68.3 32.1,-107.2 -13,-38.9 -49.2,-65.5 -90.3,-66.3 -170.9,-3.2 -325.6,-89.3 -419,-224.9 48.8,-3 97.2,-10.9 144.5,-23.7 43.5,-11.7 73.2,-51.8 71.7,-96.8 -1.5,-45 -33.7,-83.1 -77.8,-92 -193.4,-39.1 -344.4,-184.3 -397,-367.1 51.9,13.7 105.4,21.6 159.2,23.4 43.4,1.5 82.4,-26 95.7,-67.3 13.3,-41.3 -2.5,-86.4 -38.5,-110.4 -144.9,-96.7 -231.4,-258.7 -231.4,-433.3 0,-44.2 5.6,-88 16.5,-130.5 325.3,336 768.2,538.6 1237.6,562 30.7,1.5 59.8,-11.4 79.4,-34.8 19.5,-23.3 26.9,-54.6 20,-84.2 -8.9,-38.2 -13.4,-78.2 -13.4,-118.6 0,-286.7 233.4,-520 520.4,-520 143.2,0 281.8,59.8 380,164.2 22.9,24.2 56.6,35.1 89.3,28.7 36.8,-7.2 73.1,-15.9 109,-26.1 -18,14.3 -37,27.5 -57,39.4 -39.2,23.5 -56.8,71.3 -42,114.6 14.8,43.3 57.7,70.5 103.2,65.1 15.8,-1.8 31.6,-4 47.3,-6.4 -22.1,18.5 -45.1,36.5 -68.8,53.6 z"
   inkscape:connector-curvature="0"
   style="display:none;fill:#9a9a9a" />
<g
   id="instagram"
   class="st1"
   style="display:none"
   transform="translate(-3055.7,-1433.1)">
	<path
   class="st2"
   d="M 3679,-3652.2 H 2303.5 c -348.8,0 -632.5,283.7 -632.5,632.5 v 1375.5 c 0,348.8 283.8,632.5 632.5,632.5 H 3679 c 348.8,0 632.5,-283.7 632.5,-632.5 v -1375.5 c 0,-348.8 -283.7,-632.5 -632.5,-632.5 z m 466,2008 c 0,256.9 -209,466 -466,466 H 2303.5 c -256.9,0 -465.9,-209 -465.9,-466 v -1375.5 c 0,-256.9 209,-465.9 465.9,-465.9 H 3679 c 256.9,0 466,209 466,465.9 z"
   id="path5"
   inkscape:connector-curvature="0"
   style="display:inline;fill:#9a9a9a" />
	<path
   class="st2"
   d="m 3729.2,-3169.7 c -56,0 -101.5,45.5 -101.5,101.4 0,56 45.5,101.4 101.5,101.4 55.9,0 101.4,-45.4 101.4,-101.4 0,-55.8 -45.5,-101.4 -101.4,-101.4 z"
   id="path7"
   inkscape:connector-curvature="0"
   style="display:inline;fill:#9a9a9a" />
	<path
   class="st2"
   d="m 2991.2,-2979.1 c -356.9,0 -647.2,290.3 -647.2,647.2 0,356.9 290.3,647.2 647.2,647.2 356.9,0 647.2,-290.3 647.2,-647.2 0,-356.9 -290.3,-647.2 -647.2,-647.2 z m 0,1127.8 c -265.1,0 -480.7,-215.7 -480.7,-480.7 0,-265 215.6,-480.6 480.7,-480.6 265,0 480.6,215.6 480.6,480.6 0,265.1 -215.6,480.7 -480.6,480.7 z"
   id="path9"
   inkscape:connector-curvature="0"
   style="display:inline;fill:#9a9a9a" />
</g>
<path
   id="phone"
   class="st0"
   d="m 9222.3,-2863.7 -78.4,-424.4 c -6,-32.9 -31.5,-58.7 -64.3,-65.3 l -616.2,-123.2 c -26.8,-5.3 -54.5,3 -73.8,22.4 l -253.1,253.1 c -426.4,-190.4 -662.1,-426.5 -869.7,-871.3 l 252.2,-252.2 c 19.3,-19.3 27.7,-47 22.3,-73.8 l -123.2,-616.3 c -6.6,-32.8 -32.5,-58.3 -65.3,-64.3 l -424.5,-78.3 c -10.9,-2 -22.1,-1.8 -32.9,0.7 -111.1,25.2 -212.5,81.2 -293.1,161.9 -139.6,139.7 -193,343.7 -154.2,590.1 27.3,173.6 76.2,359 140.4,535.3 v 0 c 5.8,17.3 13.2,36.7 21.7,57.6 12.4,32 25.2,63.6 38.6,94.7 3.3,7.7 7.6,14.5 12.8,20.6 46,97.2 100.1,200.3 135,265.5 1.9,8 5,15.7 9.4,23.1 8.7,14.5 17.5,28.6 26.3,42.7 0.5,0.9 0.8,1.5 0.8,1.5 h 0.1 c 79.1,125.7 166.3,236.8 260,330.9 l 5.1,5.1 c 377,375.5 955.6,579.2 1371.5,644.6 165.8,26.1 344,13.9 490.1,-75.4 36.3,-22.1 69.9,-48.7 100,-78.8 80.7,-80.7 136.7,-182 161.9,-293.1 2.3,-11.2 2.5,-22.4 0.5,-33.4 z m -278,210.5 c -102.7,102.7 -253.8,139.1 -449.2,108.4 -390.6,-61.4 -932.3,-251.1 -1281.5,-598.9 l -5,-5 c -94.3,-94.7 -182.1,-209.3 -261,-340.9 -82.5,-144.4 -184.7,-385.4 -200.5,-423 -63,-170.4 -111,-349.9 -137.4,-517.7 -30.7,-195.4 5.7,-346.5 108.3,-449.1 55,-55 123.2,-94.3 198.1,-114.2 l 352.7,65.1 103.9,519.1 -261.5,261.4 c -23.9,23.9 -30.7,60.2 -16.8,91.1 237.7,532.2 516.5,810.8 1028.7,1027.9 30.7,13 66.1,6.1 89.6,-17.4 l 261.4,-261.4 519.1,103.8 65.1,352.8 c -19.7,74.8 -59,143 -114,198 z"
   inkscape:connector-curvature="0"
   style="display:none;fill:#9a9a9a" />
<path
   class="st3"
   d="M 1872.2,2048.6 1825.3,1795 c -3.5,-19.6 -18.7,-35.1 -38.3,-38.9 l -368.1,-73.6 c -16.1,-3.2 -32.7,1.8 -44.2,13.3 L 1223.5,1847 C 968.7,1733.2 828,1592.2 703.9,1326.5 l 150.7,-150.7 c 11.5,-11.5 16.6,-28.1 13.3,-44.2 L 794.3,763.5 C 790.5,743.9 775,728.7 755.4,725 L 501.8,678.2 c -6.6,-1.2 -13.2,-1.1 -19.8,0.5 -66.2,15 -126.8,48.4 -175.1,96.6 -83.4,83.6 -115.3,205.4 -92.1,352.6 16.4,103.6 45.5,214.5 83.9,319.8 3.5,10.3 7.8,21.9 13,34.3 7.4,19.2 15,38 23,56.6 2,4.6 4.6,8.7 7.7,12.3 27.4,58.1 59.6,119.7 80.6,158.7 1.1,4.8 2.9,9.4 5.5,13.8 5.2,8.6 10.4,17 15.8,25.4 0.3,0.6 0.5,0.9 0.5,0.9 47.4,75.1 99.3,141.5 155.3,197.6 l 3.1,3.1 c 225.2,224.3 570.9,346 819.3,385.1 99,15.5 205.6,8.3 292.8,-45.1 21.6,-13.3 41.7,-29.1 59.8,-47.1 48.1,-48.3 81.6,-108.8 96.6,-175.1 1.5,-6.4 1.7,-13 0.5,-19.6 z"
   id="path13"
   inkscape:connector-curvature="0"
   style="display:none;fill:#c48430" />
<g
   class="st1"
   id="g27"
   style="display:none"
   transform="translate(-3055.7,-1433.1)">
	<path
   class="st4"
   d="m 4096,1199.6 c -962.9,0 -1743.6,780.7 -1743.6,1743.6 0,962.9 780.7,1743.6 1743.6,1743.6 962.9,0 1743.6,-780.7 1743.6,-1743.6 0,-962.9 -780.7,-1743.6 -1743.6,-1743.6 z m 0,3042.5 c -717.1,0 -1298.8,-581.7 -1298.8,-1298.8 0,-717.5 581.7,-1298.8 1298.8,-1298.8 717.5,0 1298.8,581.3 1298.8,1298.8 0,717.1 -581.3,1298.8 -1298.8,1298.8 z"
   id="path15"
   inkscape:connector-curvature="0"
   style="display:inline;fill:#c48430" />
	<g
   class="st5"
   id="g25"
   style="display:inline">
		<g
   id="g19">
			<path
   class="st6"
   d="m 4096.1,3196 c -139.4,0 -252.8,-113.4 -252.8,-252.8 0,-139.4 113.4,-252.8 252.8,-252.8 139.4,0 252.8,113.4 252.8,252.8 0,139.4 -113.4,252.8 -252.8,252.8 z m 0,-296.1 c -23.9,0 -43.3,19.4 -43.3,43.3 0,23.9 19.4,43.3 43.3,43.3 23.9,0 43.3,-19.4 43.3,-43.3 0,-23.9 -19.4,-43.3 -43.3,-43.3 z"
   id="path17"
   inkscape:connector-curvature="0"
   style="fill:#c48430" />
		</g>
		<g
   id="g23">
			<polygon
   class="st6"
   points="3988.9,2056.8 4198.4,2056.8 4198.4,2900.8 4762.2,3585.3 4600.5,3718.5 3988.9,2975.9 "
   id="polygon21"
   style="fill:#c48430" />
		</g>
	</g>
</g>
<g
   class="st1"
   id="g33"
   style="display:none"
   transform="translate(-3055.7,-1433.1)">
	<path
   class="st4"
   d="m 3654.5,-2663.6 -922.2,721.3 c -11.9,9.4 -28.6,9.4 -40.5,0 l -922.2,-721.3 c 1.5,0 3.1,-0.2 4.4,-0.2 h 1876.1 c 1.5,0 2.9,0.2 4.4,0.2 z"
   id="path29"
   inkscape:connector-curvature="0"
   style="display:inline;fill:#c48430" />
	<path
   class="st4"
   d="m 3778.1,-2535.7 v 1127.4 c 0,70.6 -57.4,128 -128,128 H 1774 c -70.6,0 -128,-57.4 -128,-128 v -1127.4 c 0,-18.2 3.8,-35.7 10.7,-51.4 l 955,747 c 29.6,23.2 64.9,34.7 100.4,34.7 35.3,0 70.6,-11.5 100.2,-34.7 l 955,-747 c 6.9,15.8 10.8,33.2 10.8,51.4 z"
   id="path31"
   inkscape:connector-curvature="0"
   style="display:inline;fill:#c48430" />
</g>
<g
   id="g36"
   transform="translate(-3055.7,-1433.1)">
	<path
   id="Facebook_Places"
   class="st6"
   d="m 5087.2,2184.8 c -10.8,-40.3 -32.6,-83.2 -48.7,-120.8 -193.3,-464.5 -615.6,-630.9 -956.5,-630.9 -456.5,0 -959.2,306.1 -1026.3,937 V 2499 c 0,5.4 1.9,53.7 4.5,77.9 37.6,300.7 274.9,620.2 452.1,920.9 190.6,322.1 388.4,639 584.4,955.8 120.8,-206.7 241.2,-416.1 359.3,-617.5 32.2,-59.1 69.5,-118.2 101.8,-174.6 21.5,-37.6 59.4,-86.6 78.2,-121.6 190.6,-349 500.5,-689.2 500.5,-1035.5 V 2362 c -0.1,-37.5 -46.7,-169.1 -49.3,-177.2 z m -996.9,647.1 c -134.2,0 -281,-67.1 -353.5,-252.4 -10.8,-29.5 -9.9,-88.6 -9.9,-94 v -83.2 c 0,-236.2 200.6,-343.6 375,-343.6 214.8,0 380.9,171.9 380.9,386.6 0,214.8 -177.7,386.6 -392.5,386.6 z"
   inkscape:connector-curvature="0"
   style="fill:#c48430" />
</g>
</svg>