<?xml version="1.0" encoding="utf-8"?>
<!-- Generator: Adobe Illustrator 23.0.2, SVG Export Plug-In . SVG Version: 6.00 Build 0)  -->
<svg version="1.0" id="Layer_1" xmlns="http://www.w3.org/2000/svg" xmlns:xlink="http://www.w3.org/1999/xlink" x="0px" y="0px"
	 viewBox="0 0 841.9 595.3" style="enable-background:new 0 0 841.9 595.3;" xml:space="preserve">
<style type="text/css">
	.st0{fill:url(#SVGID_1_);}
	.st1{font-family:'Calibri';}
	.st2{font-size:19.881px;}
	.st3{fill:url(#SVGID_2_);}
	.st4{fill:url(#SVGID_3_);}
	.st5{fill:url(#SVGID_4_);}
</style>
<g>
	
		<radialGradient id="SVGID_1_" cx="503.5591" cy="231.26" r="784.4858" fx="840.1205" fy="233.1725" gradientUnits="userSpaceOnUse">
		<stop  offset="0" style="stop-color:#FFFFFF"/>
		<stop  offset="0" style="stop-color:#FFFFFF"/>
		<stop  offset="4.008406e-02" style="stop-color:#FDFAF6"/>
		<stop  offset="8.737316e-02" style="stop-color:#F7F0E6"/>
		<stop  offset="0.1383" style="stop-color:#F0E3CF"/>
		<stop  offset="0.1918" style="stop-color:#E7D1B1"/>
		<stop  offset="0.2474" style="stop-color:#DDBD8E"/>
		<stop  offset="0.3046" style="stop-color:#D1A667"/>
		<stop  offset="0.3622" style="stop-color:#C48E39"/>
		<stop  offset="0.3789" style="stop-color:#C0872D"/>
		<stop  offset="0.4295" style="stop-color:#CB9B51"/>
		<stop  offset="0.4815" style="stop-color:#D5AE75"/>
		<stop  offset="0.5369" style="stop-color:#DFC094"/>
		<stop  offset="0.5949" style="stop-color:#E7D1B1"/>
		<stop  offset="0.6562" style="stop-color:#EEDFCA"/>
		<stop  offset="0.7219" style="stop-color:#F4EBDE"/>
		<stop  offset="0.7941" style="stop-color:#FAF5EE"/>
		<stop  offset="0.8778" style="stop-color:#FEFCFA"/>
		<stop  offset="1" style="stop-color:#FFFFFF"/>
	</radialGradient>
	<path class="st0" d="M590.9,178.7c-9.3-19-27.4-25.2-46.9-26.4c-10.2-0.6-17.1-2.8-20.2-13.5c-2.3-7.7-6.9-9.2-14.9-7.4
		c-6.9,1.6-13,4.8-19.1,8.2c-4.2,2.3-6,1-6.7-3.7c-0.9-6-0.8-12.1-2.6-18c-6.5-21.3-21.2-36.8-36.8-51.4
		c-7.7-7.2-17.2-11.2-28.3-10.6c-13.2,0.7-19.7,6.6-19.7,19.7c0,15.2-6.4,28.9-24.6,33.3c-6.3,1.5-11.7,5.2-14,11.6
		c-3.9,10.5-2.3,21,0,32.2c1.4-1.1,2-1.4,2.3-1.9c13.3-20.9,34.7-27.8,57-27.5c30.7,0.3,59.4,24.1,54.6,62.3
		c-1.8,14.5-8.5,25.9-20.5,34c-2.1,1.4-5.9,4.3-5.5-1.9c1.1-16.1-8.1-25.9-20.4-33.8c-3.6-2.3-5.1-1.7-5.2,2.8
		c-0.5,15.3-6.6,22.6-21.3,25.4c-12.3,2.4-15.3-0.5-12.6-12.4c1.8-8.1,0.2-15.2-7.6-20.8c-1.9-1.4-2-3.2-1.1-5.4
		c1.1-2.7,2.5-5.6-0.7-6.2c-3.1-0.6-4.5,1.6-4.9,4.3c-0.3,2.2-0.5,4.5-0.3,6.7c0.3,3.4,0.3,6.6-3.6,7.7c-3.6,1.1-5.2-2-7-4.2
		c-3-3.9-3.3-8.8-4.5-13.3c-6.8-25.3-40.6-35-57.1-20.9c-7.7,6.6-17.5,10.1-27.4,12.4c-10,2.4-16.8,8.7-20.5,17.9
		c-3.8,9.5-5,19.5-2.7,29.8c3.5,15.6,8.7,30.7,13.7,45.9c4.3,12.8,13.7,19.5,27.4,19.8c4.2,0.1,8.3,0,13,0c-0.5,1.8-0.6,2.5-0.9,3
		c-12.3,16.7-12.9,28.8-2.1,46.3c5.1,8.3,9.1,16.8,11.4,26.4c5.1,21.6,22.2,34.5,44.4,35.2c10.1,0.3,20,1.3,29.7,5.2
		c13.7,5.5,22.1,2.1,29.8-10.6c4.8-7.9,3.5-11-5.1-13.7c-11.3-3.4-19.4-10.5-25.6-20.5c-10.9-17.6-12-37-10.9-56.6
		c0.7-13.4,6.1-25,15.9-34.7c11.8-11.7,27.2-14.5,42.3-17.5c34.4-6.8,53.3-34.1,46.6-68.3c-0.2-1.2-1.1-2.6,0.5-3.7
		c2.7,0.4,3.9,2.7,5.4,4.5c9.1,11.2,10.5,23.9,7.5,37.6c-1.7,7.7-1.4,15,1.1,21.7c2.2,0.7,5.2,1.1,8.5,0c0,0-0.4,3.3-7.2,2.8
		c1.5,3.1,3.6,6,6.2,8.8c2,2.1,4,4.3,6.2,6.2c4.1,3.5,4.2,6.9-0.3,9.7c-4.9,3.1-9,6.1-5.7,12.8c0.4,0.7-0.2,2.6-0.9,3
		c-5.1,3.1-5.7,7.5-4.2,12.8c0.3,0.9-0.3,2.5-1,3.1c-3.6,3.1-3.2,6.9-2.7,11.1c0.9,6.7-1.5,9.1-8.4,8.5c-4.9-0.4-9.8-1.3-14.6-2.3
		c-4.9-1-9.7-1.4-14.7-0.2c-15.7,3.8-22.3,14.9-23.6,29.9c-1.3,13.9,3.9,25.3,15,33.4c10.9,7.9,22.6,8.1,34,0.8
		c8.5-5.4,17.3-7.7,27.6-5c8.4,2.2,15.4-1.5,20.7-8.2c2.9-3.7,5.3-7.9,6.7-12.4c3.2-9.6,8.7-17,17.5-22.2
		c7.6-4.4,10.6-11.7,11.3-20.3c0.7-8.6-2.6-15.9-6.8-22.8c-1.9-3-2.2-5,1-7.3c18.2-13.1,29-31.1,34.3-52.5
		C594.5,204.8,596.9,191.1,590.9,178.7z M377.8,197.8c-0.3,5.4-2.7,9.9-5.9,14.1c-5.6,7.3-12.5,13-20.8,16.8
		c-10.5,4.7-21.2,8.6-32.2,11.8c-1.1,0.3-2.2,0.5-3,0.7c-1.6-0.1-3.1,0.3-3.8-1.3c-0.7-1.6,0.6-2.5,1.6-3.3
		c5.9-4.5,11.5-9.3,16.9-14.5c8.9-8.6,16.9-17.4,17.6-30.7c0.1-2,0.2-5,3-5.5c2.4-0.5,3.2,2.1,4.4,3.5c4.6,5.3,9.6,8.8,16.9,4.5
		C376.3,191.8,378,194,377.8,197.8z"/>
	<g>
		<text transform="matrix(1 0 0 1 611.9922 472.6445)" class="st1 st2"> </text>
		<radialGradient id="SVGID_2_" cx="139.6134" cy="478.2144" r="648.8174" gradientUnits="userSpaceOnUse">
			<stop  offset="0" style="stop-color:#FFFFFF"/>
			<stop  offset="4.133598e-05" style="stop-color:#E5BB7E"/>
			<stop  offset="0.2552" style="stop-color:#CD9849"/>
			<stop  offset="0.4319" style="stop-color:#C0872D"/>
			<stop  offset="0.5453" style="stop-color:#CB984C"/>
			<stop  offset="0.6986" style="stop-color:#D9B176"/>
			<stop  offset="0.831" style="stop-color:#E5C496"/>
			<stop  offset="0.9359" style="stop-color:#ECD1AB"/>
			<stop  offset="1" style="stop-color:#EFD6B3"/>
		</radialGradient>
		<path class="st3" d="M446.7,487.6c-1.4-2.4-4.7-4.1-4.8-6.3c-0.1-1.9,3.6-5.7,4.5-8.1c5.3-12.6,1.7-23.5-9.2-30.6
			c-10-6.6-25.6-5.1-34.2,3.5c-3.6,3.6-6.5,7.7-10.9,13c-0.2-3.7-0.1-5.8-0.5-7.7c-0.7-3.4,2.1-9.6-2.8-9.5c-4.5,0.1-3.2,6.7-3,10.3
			c0.9,22.5,0.1,44.9,0.4,67.4c0,3.1-0.2,6.3,0,9.4c0.1,1.8,0.6,3.9,2.9,3.9c2.5,0,2.5-2.3,2.5-4c0.4-13.9,1.2-27.8,0.8-41.6
			c-0.4-15.4,5.7-27.6,16.7-37.3c7.4-6.6,17.4-6.3,25.7-0.9c6.4,4.2,9.2,12.7,7.1,20.9c-1.3,5.3-3.7,7.9-9.6,5.6
			c-5.2-2-10.6-1.8-15.6,1c-3.4,1.9-4.4,4.9-4,8.6c0.4,3.7,2.8,5.2,6.3,6c5.4,1.2,10.3,0.2,14.9-2.5c3.8-2.2,6.5-1.5,9,2.3
			c5.5,8.3,7.7,16.9,2.6,26c-4.6,8.2-11.7,12.2-21.4,13c-9.2,0.7-15.5-3.1-20.9-9.6c-1.4-1.7-3.5-3.5-5.7-1.4
			c-2.1,1.9-0.1,3.7,0.9,5.3c8.3,13.1,31.5,16.7,43.7,6.9C455.1,520.5,456.3,504.1,446.7,487.6z M419.6,482.1
			c1.1-3.2,7.4-2.1,11.5-1c1.5,0.4,1.9,2.4,0.7,3.3C421,492.8,419.6,482.1,419.6,482.1z"/>
		<radialGradient id="SVGID_3_" cx="136.9237" cy="478.2144" r="655.6761" gradientUnits="userSpaceOnUse">
			<stop  offset="0" style="stop-color:#FFFFFF"/>
			<stop  offset="4.133598e-05" style="stop-color:#E5BB7E"/>
			<stop  offset="0.2552" style="stop-color:#CD9849"/>
			<stop  offset="0.4319" style="stop-color:#C0872D"/>
			<stop  offset="0.5453" style="stop-color:#CB984C"/>
			<stop  offset="0.6986" style="stop-color:#D9B176"/>
			<stop  offset="0.831" style="stop-color:#E5C496"/>
			<stop  offset="0.9359" style="stop-color:#ECD1AB"/>
			<stop  offset="1" style="stop-color:#EFD6B3"/>
		</radialGradient>
		<path class="st4" d="M357.2,516c-1.2-0.7-2.3-0.1-3,0.8c-2.2,2.5-4.4,5.1-6.5,7.8c-2.3,2.9-5.1,4.6-8.8,3.5
			c-3.8-1.2-3.8-4.6-3.9-7.8c-0.1-5.8-0.1-11.7-0.1-17.5c-0.1-8.3-2.6-10.5-10.7-8.9c-12.4,2.4-22.6,7.7-28.7,19.9
			c-3.6,7.3-8,14.7-17.9,15.6c-12.1,1.2-20.6-6.5-30.1-11.7c-0.9-0.5-1.4-2.4-1.3-3.6c0.5-13.1-3.2-25.9-3-39c0-2,0-4,0-6.1
			c0.2-16,13.7-25.8,29-21.4c4.7,1.4,6.3,5.5,9.1,8.5c1.4,1.5,2.8,3.4,5,1.9c1.7-1.2,1.3-3.3,0.6-5c-1.9-5-4.9-9.1-10.1-11.1
			c-15.1-6-30.1-0.2-37.5,14.4c-4.1,8-3.1,16.2-2.3,24.4c0.7,8.1,2,16.1,2.6,24.1c0.5,7.3-1,8.4-8.3,7.8c-3.1-0.3-6.4-0.5-9.4,0.2
			c-5.6,1.2-8,5.4-8.4,10.9c-0.3,4.4,0.2,8.7,4.9,10.9c5.6,2.6,15.8,1.2,19.1-4.1c4.6-7.4,9.2-5.9,14.8-2.2c1.3,0.9,2.6,1.7,4,2.5
			c12,6.8,24,8.9,35.8-0.5c1.9-1.5,3.5-2.2,5.1,0c4.9,7,12.7,6.9,18.9,5.2c7.7-2.1,13.9-3.6,22.1-0.6c7.5,2.8,18.2-7.1,19.6-15.7
			C358.1,517.9,358.3,516.7,357.2,516z M221.6,520.8c5.3-5.7,14.8-0.4,14.8-0.4c-6.6,10.8-11.8,8.7-14.6,6.1
			C220.2,525,220.1,522.4,221.6,520.8z M308.6,528.3c-5.5-1-8.1-4.9-6.6-10.3c2.2-8.1,13.9-17.3,22.2-17.4c2.6,0,3.8,1.2,3.9,3.6
			c0.1,2.2,0,4.5,0,5.9C329.9,522.2,320.4,530.4,308.6,528.3z"/>
		<radialGradient id="SVGID_4_" cx="136.9235" cy="478.2144" r="655.6765" gradientUnits="userSpaceOnUse">
			<stop  offset="0" style="stop-color:#FFFFFF"/>
			<stop  offset="4.133598e-05" style="stop-color:#E5BB7E"/>
			<stop  offset="0.2552" style="stop-color:#CD9849"/>
			<stop  offset="0.4319" style="stop-color:#C0872D"/>
			<stop  offset="0.5453" style="stop-color:#CB984C"/>
			<stop  offset="0.6986" style="stop-color:#D9B176"/>
			<stop  offset="0.831" style="stop-color:#E5C496"/>
			<stop  offset="0.9359" style="stop-color:#ECD1AB"/>
			<stop  offset="1" style="stop-color:#EFD6B3"/>
		</radialGradient>
		<path class="st5" d="M627,516c-1.5-0.7-2.6,0.2-3.5,1.3c-2.5,2.8-4.9,5.9-7.6,8.6c-2,2.1-4.5,4.3-7.7,2.8c-3-1.4-3.3-4.6-3.5-7.5
			c-0.4-7.4-0.9-14.8-0.9-22.2c0-3.9-1.7-5.7-5.2-5.3c-12.8,1.4-24.8,4.3-31.8,17.1c-3,5.5-5.8,11.2-10.7,15.4
			c-2,1.7-4.2,2.6-6.8,1.8c-2.7-0.9-2.6-3.4-2.8-5.6c-1.3-12.7-0.6-24.7,5.6-36.6c6.2-11.8,10.4-24.4,6-38.3c-1.6-4.8-3.9-8-9.2-8.3
			c-5.5-0.3-7.2,3.6-8.4,8c-3.1,11.3-3.1,23-1.5,34.1c2.7,18.4-7.5,30.6-16.8,43.7c-0.9,1.2-2.3,2.3-3.7,2.8
			c-3.6,1.5-6.6,1.4-7.1-3.7c-1.1-11.7-1.5-23,3.9-34.2c5.7-11.7,11-23.7,8.5-37.5c-1.6-9.1-4.9-13.5-10.7-13.2
			c-5.3,0.3-8.3,4.9-8.4,14c-0.2,10.1-0.8,20.3,0.1,30.3c1.4,15.3-7.3,26.4-14.5,38.1c-1.7,2.8-4.6,4.9-7.7,6.4
			c-4.5,2.1-9.1,2.5-13.3-1c-4.2-3.5-3.8-6.1,1.1-8.5c3.2-1.6,6.8-2.6,9.7-4.6c5.4-3.5,6.8-10.7,3.5-15.4c-3.3-4.9-10.1-5.8-15.6-2
			c-6.4,4.4-8.2,11.2-8.6,18.2c-0.7,12,4,19,12.3,20.2c12.1,1.7,20.3-2.5,26.3-13.2c1.6-2.8,2.8-5.8,6.7-8.8c0,4.5-0.1,7.6,0,10.7
			c0.4,10.2,7,14.6,16.4,10.7c3.9-1.6,6.6-4.6,9-8c2.5-3.6,4.8-7.4,7.3-11.2c0.7,0.8,1.2,1,1.2,1.4c0.5,3.3,0.8,6.7,1.3,10
			c1.2,7.3,6,10.5,13,8.9c3.4-0.8,6.4-2.4,8.7-4.9c2.5-2.7,4.2-2.4,6.6,0.1c4.5,4.7,10.5,7.4,16.5,5.1c7.7-2.9,14.2-4.7,22.7-1.2
			c7.5,3.1,19.1-7.4,20.4-15.7C628.2,517.7,628.2,516.6,627,516z M478.9,500.8c1.2,7-3.9,10-7.9,11.2c-2.1,0.7-4.3-1-4.1-3.2
			C468.1,495,478.9,500.8,478.9,500.8z M511.5,445.6c0.6-2.1,3.2-2.8,4.7-1.2c3.6,3.9,7.6,14.6-6,43.5
			C510.3,487.9,508.5,456.3,511.5,445.6z M545.5,445.6c0.6-2.1,3.2-2.8,4.7-1.2c3.6,3.9,7.6,14.6-6,43.5
			C544.3,487.9,542.6,456.3,545.5,445.6z M584.4,528.8c-4,1-8.1,1-10.9-2.8c-2.7-3.7-2.7-7.4-0.2-11.2c3.4-5.4,7.5-10,13.6-12.4
			c9.5-3.7,11.3-2.6,11.2,7.7C597.9,520.9,594.1,526.3,584.4,528.8z"/>
	</g>
</g>
</svg>
